<?xml version="1.0" encoding="utf-8"?>
<!-- Generator: Adobe Illustrator 24.1.3, SVG Export Plug-In . SVG Version: 6.00 Build 0)  -->
<svg version="1.1" id="Ebene_1" focusable="false" xmlns="http://www.w3.org/2000/svg" xmlns:xlink="http://www.w3.org/1999/xlink"
	 x="0px" y="0px" viewBox="0 0 384 512" style="enable-background:new 0 0 384 512;" xml:space="preserve">
<style type="text/css">
	.st0{fill:#2CE59E;}
</style>
<path class="st0" d="M336,64h-88.6c0.4-2.6,0.6-5.3,0.6-8c0-30.9-25.1-56-56-56s-56,25.1-56,56c0,2.7,0.2,5.4,0.6,8H48
	C21.5,64,0,85.5,0,112v352c0,26.5,21.5,48,48,48h288c26.5,0,48-21.5,48-48V112C384,85.5,362.5,64,336,64z M192,32
	c13.3,0,24,10.7,24,24s-10.7,24-24,24s-24-10.7-24-24S178.7,32,192,32z M352,464c0,8.8-7.2,16-16,16H48c-8.8,0-16-7.2-16-16V112
	c0-8.8,7.2-16,16-16h48v20c0,6.6,5.4,12,12,12h168c6.6,0,12-5.4,12-12V96h48c8.8,0,16,7.2,16,16V464z M112,328
	c-13.3,0-24,10.7-24,24s10.7,24,24,24s24-10.7,24-24S125.3,328,112,328z M280,336H168c-4.4,0-8,3.6-8,8v16c0,4.4,3.6,8,8,8h112
	c4.4,0,8-3.6,8-8v-16C288,339.6,284.4,336,280,336z M126.2,270.4l64.2-63.6c2.1-2.1,2.1-5.5,0-7.6l-12.6-12.7
	c-2.1-2.1-5.5-2.1-7.6,0l-47.6,47.2L102,212.8c-2.1-2.1-5.5-2.1-7.6,0l-12.7,12.6c-2.1,2.1-2.1,5.5,0,7.6l37.1,37.4
	C120.7,272.5,124.1,272.5,126.2,270.4z M280,240h-77.6l-32.3,32H280c4.4,0,8-3.6,8-8v-16C288,243.6,284.4,240,280,240z"/>
</svg>
