<?xml version="1.0" encoding="utf-8"?>
<!-- Generator: Adobe Illustrator 24.1.3, SVG Export Plug-In . SVG Version: 6.00 Build 0)  -->
<svg version="1.1" id="Ebene_1" focusable="false" xmlns="http://www.w3.org/2000/svg" xmlns:xlink="http://www.w3.org/1999/xlink"
	 x="0px" y="0px" viewBox="0 0 448 512" style="enable-background:new 0 0 448 512;" xml:space="preserve">
<style type="text/css">
	.st0{fill:#4A2770;}
</style>
<path class="st0" d="M90.2,228.2c8.9-42.4,37.4-77.7,75.7-95.7c3.6,4.9,28,38.8,50.7,79C152.6,228.5,96.3,228.3,90.2,228.2z
	 M314.6,154c-33.6-29.8-79.3-41.1-122.6-30.6c3.8,5.1,28.6,38.9,51,80C291.6,185.1,312.1,157.5,314.6,154z M140.1,364
	c40.5,31.6,93.3,36.7,137.3,18c-2-12-10-53.8-29.2-103.6C193.1,297.2,154.4,334.8,140.1,364L140.1,364z M238.9,255.8
	c-3.4-7.8-7.2-15.5-11.1-23.2C159.6,253,93.4,252.2,87.4,252c0,1.4-0.1,2.8-0.1,4.2c0,35.1,13.3,67.1,35.1,91.4
	C144.6,309.7,189.5,269.7,238.9,255.8L238.9,255.8z M273.8,272.1c17.9,49.1,25.1,89.1,26.5,97.4c30.7-20.7,52.5-53.6,58.6-91.6
	C354.3,276.4,316.6,265.2,273.8,272.1z M253.5,223.7c4.8,9.8,8.3,17.8,12,26.8c45.5-5.7,90.7,3.4,95.2,4.4
	c-0.3-32.3-11.8-61.9-30.9-85.1C326.9,173.7,304,203,253.5,223.7z M448,80v352c0,26.5-21.5,48-48,48H48c-26.5,0-48-21.5-48-48V80
	c0-26.5,21.5-48,48-48h352C426.5,32,448,53.5,448,80z M384,256c0-88.2-71.8-160-160-160S64,167.8,64,256s71.8,160,160,160
	S384,344.2,384,256z"/>
</svg>
