<?xml version="1.0" encoding="utf-8"?>
<!-- Generator: Adobe Illustrator 24.1.3, SVG Export Plug-In . SVG Version: 6.00 Build 0)  -->
<svg version="1.1" id="Ebene_1" focusable="false" xmlns="http://www.w3.org/2000/svg" xmlns:xlink="http://www.w3.org/1999/xlink"
	 x="0px" y="0px" viewBox="0 0 448 512" style="enable-background:new 0 0 448 512;" xml:space="preserve">
<style type="text/css">
	.st0{fill:#4A2770;}
</style>
<path class="st0" d="M400,32H48C21.5,32,0,53.5,0,80v352c0,26.5,21.5,48,48,48h137.2V327.7h-63V256h63v-54.6
	c0-62.2,37-96.5,93.7-96.5c27.1,0,55.5,4.8,55.5,4.8v61h-31.3c-30.8,0-40.4,19.1-40.4,38.7V256h68.8l-11,71.7h-57.8V480H400
	c26.5,0,48-21.5,48-48V80C448,53.5,426.5,32,400,32z"/>
</svg>
