<?xml version="1.0" encoding="utf-8"?>
<!-- Generator: Adobe Illustrator 24.1.1, SVG Export Plug-In . SVG Version: 6.00 Build 0)  -->
<svg version="1.1" id="Ebene_1" xmlns="http://www.w3.org/2000/svg" xmlns:xlink="http://www.w3.org/1999/xlink" x="0px" y="0px"
	 viewBox="0 0 190.9 100" style="enable-background:new 0 0 190.9 100;" xml:space="preserve">
<style type="text/css">
	.st0{fill:none;stroke:#2CE59E;stroke-width:4;stroke-miterlimit:10;}
	.st1{fill:#2CE59E;}
</style>
<path class="st0" d="M22.5,51c0,0,14.8-2.2,16.6-5.1c0,0-2,11.7,4.2,23.1c0,0-10,4-23,4.5C7.4,74.1,22.5,51,22.5,51z"/>
<path class="st0" d="M56.6,33c0,0-9.4,16.7-1.2,34.1c0.9,1.9,1.1,4.7-0.8,5.6c-1.9,0.9-5.1,1.2-7,1.1c-6.9-0.3-13.8-33.7-0.9-42.4
	c2.7-1.8,6.4-1.4,8.9,0.8C56.2,32.7,56.6,33,56.6,33z"/>
<path class="st0" d="M168,38.3c0,0-14.3,0.3-16.1-2.6c0,0,2.3,11.7-3.9,23.1c0,0,9.3,1.5,22.2,2.1C183.2,61.4,168,38.3,168,38.3z"/>
<path class="st0" d="M143.3,63.5h-0.2c-1.9,0.1-5-0.2-6.8-1.1s-1.6-3.8-0.8-5.6c6.6-13.8,2-27.1-0.2-32.1c-0.6-1.3-1-2-1-2
	s0.4-0.3,0.9-0.8c2.5-2.1,6.1-2.6,8.8-0.8C157.1,29.8,150.2,63.2,143.3,63.5z"/>
<path class="st0" d="M137.5,51.8c-0.5,1.6-1.1,3.3-1.9,4.9c-0.9,1.8-1.1,4.7,0.8,5.6c1.3,0.7,3.3,1.1,5,1.2"/>
<path class="st0" d="M95.6,12.1"/>
<path class="st0" d="M95.6,12.1c-1.7-0.3-3.3-0.5-5-0.6c-12.9-0.2-22.1,6.9-28.2,14.2c-7.8,9.3-11.7,21.5-9.9,33.5
	c0.1,0.7,0.2,1.3,0.4,2c0,0,1.8,8.7,9.2,13.4C59.4,51,89,35.5,89,35.5"/>
<path class="st0" d="M141.2,64.9c-0.7,6.9-3.5,11.7-3.5,11.7c-2.4,4-5.8,4-6.6,4.6c-2.1,5.3-5,6.4-6.5,6.6c-0.8,0.1-1.6,0.3-2.3,0.7
	c-0.9,0.5-2.1,1.2-2.5,1.9c-6.9,9.3-18.9,3.1-23,0.6l0,0c-10.9,1.6-20.3-7.5-20.3-7.5C66.2,88,64,82,64,82c-1-2.5-1.6-5-1.9-7.4"/>
<path class="st0" d="M137.5,51.8c3.6-11.9-0.2-22.8-2.1-27.1c-0.2-0.2-0.3-0.4-0.5-0.6c0,0-24.6-36.4-39.1-12.2
	c0,0.1-0.1,0.1-0.1,0.2"/>
<g>
	<path class="st1" d="M86.8,34.9c-0.3-3.4,0-6.9,1.1-9.9c0.3,3.2,1.4,6.2,2.8,8.9L86.8,34.9z"/>
</g>
<path class="st0" d="M93,11.5c0,0,15.8,5.6,16.9,27.3c0.7,13.5-5.2,13.4-9.8,11.3c-3.2-1.4-5.8-3.9-7.6-7c-1.3-2.2-2.8-5.3-3.8-8.8"
	/>
<g>
	<path class="st1" d="M58.7,49.6c1.3,0,2.7,0,3.9-0.2c0.6-0.1,1.3-0.2,1.9-0.3s1.2-0.3,1.8-0.4c0.6-0.2,1.2-0.4,1.7-0.7
		c0.6-0.3,1.1-0.4,1.8-0.5c0.6-0.1,1.3-0.1,1.9-0.1c0.7,0,1.4,0.1,2.3,0.3l0.2,0.4c-0.7,1.6-1.9,2.6-3.2,3.2
		c-1.3,0.8-2.9,0.5-4.3,0.6c-1.4,0-2.9-0.1-4.3-0.4c-1.4-0.3-2.7-0.7-4-1.4L58.7,49.6z"/>
</g>
<path class="st0" d="M95.5,72.3c-10,3.6-2.7,13.8-2.7,13.8s3.8,5.5,10.9,8.1"/>
<path class="st0" d="M146.3,74.7"/>
<path class="st0" d="M122.7,88.3c0,0-28.3-0.5-27.4-22.9c0.3-7.9,8.6-9.9,15-7.3"/>
<path class="st0" d="M137,77.7c0,0-11.5,8.8-22.6-3.2c-6.5-7-5.8-12.8-4.2-16.3c1.5-3.2,5-5,8.5-4.3c1,0.2,2,0.5,3.3,0.9
	c6.4,2.4,10.1,8.5,16.2,8.2"/>
<g>
	<path class="st1" d="M74,84c0-1.2-0.1-2.4-0.1-3.6c0.1-1.2,0.1-2.4,0.3-3.5c0.3-2.3,0.9-4.6,1.7-6.8c0.8-2.2,1.9-4.2,3.2-6.1
		c1.3-1.9,2.8-3.6,4.6-5c-1.5,1.7-2.7,3.6-3.7,5.5c-1,2-1.7,4.1-2.2,6.2c-0.4,2.1-0.7,4.3-0.6,6.4c0,1.1,0.1,2.1,0.2,3.2
		c0.1,1.1,0.4,2.1,0.5,3.1L74,84z"/>
</g>
</svg>
