<?xml version="1.0" encoding="utf-8"?>
<!-- Generator: Adobe Illustrator 24.2.1, SVG Export Plug-In . SVG Version: 6.00 Build 0)  -->
<svg version="1.1" id="Ebene_1" xmlns="http://www.w3.org/2000/svg" xmlns:xlink="http://www.w3.org/1999/xlink" x="0px" y="0px"
	 viewBox="0 0 145.6 150" style="enable-background:new 0 0 145.6 150;" xml:space="preserve">
<style type="text/css">
	.st0{fill:#2CE59E;}
	.st1{opacity:0.4;fill:#2CE59E;enable-background:new    ;}
</style>
<path id="Pfad_78" class="st0" d="M61.1,145.4c-1.1,0-19.6-0.2-35.8-8.7c-12-6.3-19.8-17.9-20.9-31v0C4,100.9,4.5,96.1,6,91.5
	c3.5-11.1,11.2-17.8,12.5-18.9c0.1-0.2,0.5-0.8,0.5-2c0-1.1-0.4-3-2-5.8c-2.7-4.6-2.7-10.7,0-16.8c2.7-6.1,7.5-10.8,12.9-12.8
	C29.2,32,29,26.5,32.2,21C36,14.6,43.3,10.1,53.9,7.6C64,5.2,99.1-0.3,127.7,29c0.5,0.5,8.1,8.2,12.6,20.4
	c4.2,11.5,6.4,29.5-7.5,49.2l-0.4,0.5c0,0.1-0.1,0.1-0.1,0.2c2.8,4.4,2.7,10-0.2,14.2c-3.5,5-10.1,6.7-15.8,4.4
	c-10,14.4-24.1,21.1-34.3,24.2c-10.1,3.1-18.4,3.3-20.4,3.3C61.3,145.4,61.2,145.4,61.1,145.4z M116.7,113.4
	c4.1,2.5,9.3,1.5,11.9-2.2c2.2-3.1,2-7.3-0.6-10.4l-1.1-1.3l1-1.3c0.2-0.3,0.6-0.7,1.1-1.4l0.3-0.5c10.2-14.6,12.6-29.8,7-45.1
	c-4.2-11.6-11.6-18.9-11.7-19l0,0C97.6,4.4,64.4,9.5,54.9,11.7c-9.4,2.2-15.8,6.1-19,11.4c-3.3,5.6-2,11.3-1.6,12.9l0.6,2.2
	l-2.2,0.5c-4.9,1.1-9.5,5.3-11.9,10.9c-2.1,4.7-2.2,9.6-0.2,12.9c1.7,2.9,2.5,5.5,2.6,7.9c0,3.2-1.4,4.8-1.7,5.1l-0.1,0.1l-0.1,0.1
	c-0.1,0.1-7.9,6.3-11.2,17c-1.3,4.1-1.7,8.3-1.4,12.5c1,11.6,8,21.9,18.7,27.5c15.4,8.1,33.6,8.2,33.8,8.2h0.1
	c0.1,0,8.7,0.2,19.5-3.1c9.9-3,23.7-9.6,33-24l1.1-1.7L116.7,113.4z"/>
<path id="Pfad_79" class="st0" d="M50.4,79.5c3.5-0.1,6.5,2.2,7.3,5.3c0,0.3-0.7,0.1-1-0.1c-0.4-0.2-3.4-3.2-5.8-3.2
	c-3.3,0.1-5.9,2.9-5.4,6.1c0.3,1.9,1.7,3.5,3.6,4.2c0.9,0.3,1.8,0.4,2.7,0.2c0.8-0.1,1.5,0,2.2,0.5c0,0,0.1,0.1,0.1,0.1
	c-1.1,0.6-2.3,0.9-3.5,0.9c-4.1,0.1-7.4-3-7.5-6.9C43.1,82.8,46.4,79.6,50.4,79.5z"/>
<path id="Pfad_82" class="st0" d="M113.2,97.5c1.5-1.9,3.8-3.2,6.3-3.7c1.3-0.3,2.6-0.4,3.9-0.3c1.4,0.1,2.7,0.5,3.9,1.1
	c0.6,0.3,1.2,0.7,1.7,1.1c0.5,0.4,1.1,0.9,1.6,1.3c1,1,1.8,2.1,2.4,3.3l0.4,0.9c0.1,0.3,0.2,0.6,0.4,1c0.1,0.3,0.2,0.7,0.3,1
	l0.1,0.5l0.1,0.5c0.1,0.7,0.2,1.4,0.2,2.1l0,1c0,0.3-0.1,0.7-0.1,1c-0.2,1.4-0.7,2.7-1.3,4c-0.7,1.2-1.6,2.3-2.6,3.3
	c-2.1,1.9-4.7,3-7.5,3.3c-2.7,0.3-5.5-0.3-7.9-1.6c-0.3-0.2-0.6-0.4-0.9-0.6l-0.4-0.3c-0.1-0.1-0.3-0.2-0.4-0.3
	c-0.6-0.4-1-0.9-1.4-1.4c-0.4-0.6-0.7-1.2-0.8-1.9c-0.2-0.8-0.1-1.5,0.2-2.3c0.7,0.2,1.4,0.4,2,0.7c0.5,0.2,1,0.4,1.4,0.7
	c0.4,0.2,0.8,0.5,1.2,0.8l0.3,0.2l0.3,0.2c0.2,0.1,0.4,0.2,0.6,0.3c1.7,0.9,3.5,1.3,5.4,1.1c1.8-0.2,3.6-1,4.9-2.2
	c0.6-0.6,1.2-1.4,1.6-2.2c0.4-0.8,0.7-1.7,0.8-2.6c0-0.2,0.1-0.4,0.1-0.7l0-0.7c0-0.5-0.1-0.9-0.1-1.4c-0.1-0.9-0.4-1.8-0.8-2.6
	c-0.4-0.8-0.9-1.6-1.6-2.3c-0.7-0.7-1.4-1.3-2.2-1.8c-0.8-0.5-1.7-1-2.6-1.4c-0.9-0.4-1.9-0.6-2.9-0.7c-2.2-0.1-4.4,0.4-6.2,1.6
	L113.2,97.5z"/>
<path id="Differenzmenge_5" class="st0" d="M63.3,130.4c3.6-0.6,8.5-4.9,9.7-9.7c0.6-2.4,0.5-5.8-3.3-8.5c-0.6-0.4-1.2-0.8-1.8-1
	c-0.7-0.3-1.4-0.5-2.2-0.6c-4.5-0.8-20-4.2-32-15.6l0,0c-0.1,0-0.1-0.1-0.2-0.1l0,0l-0.1-0.1l0,0c-1-0.9-2-1.6-3.1-2.3
	c-0.7-0.4-1.5-0.8-2.3-1c-0.9-0.3-1.8-0.4-2.7-0.4c-0.8,0-1.6,0.1-2.4,0.4c-0.5,0.1-1,0.2-1.4,0.4c-0.9,0.3-1.7,0.8-2.4,1.4
	c-1.7,1.4-3.8,4.2-3.8,9.5c0,4.8,3.8,11.1,9.9,16.5c7.2,6.3,16.7,10.5,26.7,11.7l0,0c1,0.1,2.2,0.3,3.7,0.3c0.3,0,0.5,0,0.8,0
	C58.7,131,61,130.8,63.3,130.4z M52.5,128.7l-0.3,0l0,0l0,0c-11.7-1.4-22.8-7.2-29.6-15.5c2.2-0.9,4.5-1.4,6.9-1.4
	c2.4,0,4.9,0.5,7.1,1.4c1,0.4,1.9,0.9,2.8,1.4l0,0l0,0c0,0-0.1,0.1-0.4,0.4c-0.4,0.4-1,0.9-1.7,1.7c1.9-0.4,3.8-0.6,5.7-0.6
	c12.7,0,17.7,9.5,19,12.4c-1.8,0.3-3.6,0.5-5.5,0.5c-1,0-2.1-0.1-3.1-0.2c-0.2,0-0.3,0-0.5-0.1C52.7,128.7,52.6,128.7,52.5,128.7
	L52.5,128.7z"/>
<path id="Pfad_86" class="st0" d="M32.3,36.7c-1.2-4.3-3.8-20.9,22.1-27c9-2.1,43.6-8,71.8,20.9c0,0,30.7,30.1,4.9,66.9
	c-0.4,0.5-0.7,0.9-0.9,1.2c-16.2-11.8-25.3,6.2-25.3,6.2c-4.9-0.5-4.5-25.1-4.5-25.1C118.7,46.9,87.9,37.4,82.5,36
	c7.9,2.3,12.8,15.9,13,16.3C85,37.1,40.6,42.7,40.6,42.7s-21.1,15.6-12.4,37c-0.2-0.2-3.1-3.7-7.2-9.8c-0.2-1.6-0.8-3.6-2.3-6.2
	C13.5,54.5,21.2,39.1,32.3,36.7z"/>
<g>
	<path class="st1" d="M70.7,66.2c-4.2,1.9-6.4,7.3-4.9,11.7L71,92.7c0,0,0,0.1,0,0.1c0.4,0.9,1.3,1.2,2.2,0.7l13.7-7.9
		c4-2.3,5.9-7.8,3.9-12C89.2,70,85,69,81.5,71l-1.4,0.8l-0.5-1.5C78.2,66.5,74.4,64.5,70.7,66.2L70.7,66.2z M69.4,77.6
		c0-0.1-0.1-0.3-0.1-0.4c-0.6-2.4,0.7-5.1,2.8-6c2.1-0.9,4.2,0.3,5,2.4l1.2,3.2l3.2-1.8c0.1-0.1,0.3-0.1,0.4-0.2
		c2.2-0.9,4.4,0.3,5,2.6c0.6,2.2-0.7,4.8-2.7,5.9l-9.8,5.5c0,0,0,0,0,0c-0.4,0.2-0.9,0.1-1.1-0.4L69.4,77.6L69.4,77.6z"/>
	<path class="st0" d="M74.3,88.8c-0.4,0.2-0.9,0.1-1.1-0.4l-3.9-10.8c0-0.1-0.1-0.3-0.1-0.4c-0.6-2.4,0.7-5.1,2.8-6
		c2.1-0.9,4.2,0.3,5,2.4l1.2,3.2l3.2-1.8c0.1-0.1,0.3-0.1,0.4-0.2c2.2-0.9,4.4,0.3,5,2.6c0.6,2.2-0.7,4.8-2.7,5.9L74.3,88.8
		C74.3,88.8,74.3,88.8,74.3,88.8z"/>
</g>
<path class="st1" d="M36.3,57c-3.3,1.6-5.1,6.1-4,9.6l3.7,12.1c0,0,0,0,0,0.1c0.3,0.7,1,1,1.7,0.6l10.7-6.6c3.1-1.9,4.7-6.5,3.3-9.9
	c-1.2-3-4.4-3.7-7.2-2l-1.1,0.7l-0.4-1.2C42.1,57.1,39.2,55.6,36.3,57L36.3,57z M35.1,66.4c0-0.1-0.1-0.2-0.1-0.3
	c-0.4-1.9,0.6-4.1,2.3-4.9c1.6-0.8,3.2,0.1,3.8,1.9l0.8,2.6l2.5-1.5c0.1-0.1,0.2-0.1,0.3-0.2c1.7-0.8,3.4,0.1,3.8,2
	c0.4,1.8-0.6,3.9-2.2,4.9l-7.7,4.6c0,0,0,0,0,0c-0.3,0.2-0.7,0.1-0.8-0.3L35.1,66.4L35.1,66.4z"/>
<path class="st0" d="M38.7,75.5c-0.3,0.2-0.7,0.1-0.8-0.3l-2.8-8.7c0-0.1-0.1-0.2-0.1-0.3c-0.4-1.9,0.6-4.1,2.3-4.9
	c1.6-0.8,3.2,0.1,3.8,1.9l0.8,2.6l2.5-1.5c0.1-0.1,0.2-0.1,0.3-0.2c1.7-0.8,3.4,0.1,3.8,2c0.4,1.8-0.6,3.9-2.2,4.9L38.7,75.5
	C38.7,75.4,38.7,75.4,38.7,75.5z"/>
</svg>
