<?xml version="1.0" encoding="utf-8"?>
<!-- Generator: Adobe Illustrator 24.1.3, SVG Export Plug-In . SVG Version: 6.00 Build 0)  -->
<svg version="1.1" id="Ebene_1" focusable="false" xmlns="http://www.w3.org/2000/svg" xmlns:xlink="http://www.w3.org/1999/xlink"
	 x="0px" y="0px" viewBox="0 0 512 512" style="enable-background:new 0 0 512 512;" xml:space="preserve">
<style type="text/css">
	.st0{fill:#2CE59E;}
</style>
<path class="st0" d="M433.4,365.4c-20.6-54.2-55-73.8-93.9-79.7l158.4-158.4c18.8-18.8,18.8-49.2,0-67.9l-45.2-45.2
	C443.3,4.7,431,0,418.7,0s-24.6,4.7-34,14.1L240.2,158.6L158.1,35.9C140.3,10.4,116.9,0,93.5,0C28.7,0-35.4,80,22.8,144.1
	l110.4,121.5L19.1,379.7L0.3,487.1c-2.7,15.6,11.2,26.9,24.6,24.6l107.4-18.8l93.7-93.7C232.1,444,260.3,512,368,512
	c101.3,0,144-81.4,144-174.1c-11,7.5-49.7,38.6-62.1,38.6C442.4,376.6,436.1,372.3,433.4,365.4L433.4,365.4z M407.4,36.7
	c4.1-4.1,18.6-4.1,22.7,0l45.2,45.2c6.2,6.2,6.2,16.4,0,22.7l-46,46l-67.9-67.9C361.3,82.7,407.4,36.7,407.4,36.7z M46.5,122.5
	c-14.8-16.3-18.3-33.7-10.4-51.6C45.9,48.7,70.6,32,93.5,32c15.2,0,28.1,7.5,38.5,22.2l85.2,127.4l-61.2,61.2L46.5,122.5z
	 M116.9,463.1l-82.4,14.4l14.4-82.4l289.8-289.8l67.9,67.9L116.9,463.1L116.9,463.1z M368,480c-39.3,0-68.5-10.4-87-30.8
	c-19.2-21.3-26.2-53.5-23.7-81.3l16.9-16.9l40-35.6c71.7,4.6,82.5,43.2,89.3,61.3c7.3,19.4,25.5,31.9,46.3,31.9
	c6.6,0,13.2-1.5,20.7-4.9C458.1,442.5,430.1,480,368,480z"/>
</svg>
