<?xml version="1.0" encoding="utf-8"?>
<!-- Generator: Adobe Illustrator 24.1.3, SVG Export Plug-In . SVG Version: 6.00 Build 0)  -->
<svg version="1.1" id="Ebene_1" focusable="false" xmlns="http://www.w3.org/2000/svg" xmlns:xlink="http://www.w3.org/1999/xlink"
	 x="0px" y="0px" viewBox="0 0 512 512" style="enable-background:new 0 0 512 512;" xml:space="preserve">
<style type="text/css">
	.st0{fill:#2CE59E;}
</style>
<path class="st0" d="M376,256c0-13.3,10.7-24,24-24s24,10.7,24,24s-10.7,24-24,24S376,269.3,376,256z M336,280c13.3,0,24-10.7,24-24
	s-10.7-24-24-24s-24,10.7-24,24S322.7,280,336,280z M512,152c0,12.3-4.6,23.5-12.2,32c7.6,8.5,12.2,19.7,12.2,32v80
	c0,12.3-4.6,23.5-12.2,32c7.6,8.5,12.2,19.7,12.2,32v80c0,26.5-21.5,48-48,48H48c-26.5,0-48-21.5-48-48v-80c0-12.3,4.6-23.5,12.2-32
	C4.6,319.5,0,308.3,0,296v-80c0-12.3,4.6-23.5,12.2-32C4.6,175.5,0,164.3,0,152V72c0-26.5,21.5-48,48-48h416c26.5,0,48,21.5,48,48
	V152z M32,152c0,8.8,7.2,16,16,16h416c8.8,0,16-7.2,16-16V72c0-8.8-7.2-16-16-16H48c-8.8,0-16,7.2-16,16V152z M464,200H48
	c-8.8,0-16,7.2-16,16v80c0,8.8,7.2,16,16,16h416c8.8,0,16-7.2,16-16v-80C480,207.2,472.8,200,464,200z M480,360c0-8.8-7.2-16-16-16
	H48c-8.8,0-16,7.2-16,16v80c0,8.8,7.2,16,16,16h416c8.8,0,16-7.2,16-16V360z M400,136c13.3,0,24-10.7,24-24s-10.7-24-24-24
	s-24,10.7-24,24S386.7,136,400,136z M336,136c13.3,0,24-10.7,24-24s-10.7-24-24-24s-24,10.7-24,24S322.7,136,336,136z M400,376
	c-13.3,0-24,10.7-24,24s10.7,24,24,24s24-10.7,24-24S413.3,376,400,376z M336,376c-13.3,0-24,10.7-24,24s10.7,24,24,24
	s24-10.7,24-24S349.3,376,336,376z"/>
</svg>
