<?xml version="1.0" encoding="utf-8"?>
<!-- Generator: Adobe Illustrator 24.1.3, SVG Export Plug-In . SVG Version: 6.00 Build 0)  -->
<svg version="1.1" id="Ebene_1" focusable="false" xmlns="http://www.w3.org/2000/svg" xmlns:xlink="http://www.w3.org/1999/xlink"
	 x="0px" y="0px" viewBox="0 0 448 512" style="enable-background:new 0 0 448 512;" xml:space="preserve">
<style type="text/css">
	.st0{fill:#4A2770;}
</style>
<path class="st0" d="M400,32H48C21.5,32,0,53.5,0,80v352c0,26.5,21.5,48,48,48h352c26.5,0,48-21.5,48-48V80
	C448,53.5,426.5,32,400,32z M351.1,190.8c0.2,2.8,0.2,5.7,0.2,8.5c0,86.7-66,186.6-186.6,186.6c-37.2,0-71.7-10.8-100.7-29.4
	c5.3,0.6,10.4,0.8,15.8,0.8c30.7,0,58.9-10.4,81.4-28c-28.8-0.6-53-19.5-61.3-45.5c10.1,1.5,19.2,1.5,29.6-1.2
	c-30-6.1-52.5-32.5-52.5-64.4v-0.8c8.7,4.9,18.9,7.9,29.6,8.3c-18.3-12.2-29.2-32.7-29.2-54.6c0-12.2,3.2-23.4,8.9-33.1
	c32.3,39.8,80.8,65.8,135.2,68.6c-9.3-44.5,24-80.6,64-80.6c18.9,0,35.9,7.9,47.9,20.7c14.8-2.8,29-8.3,41.6-15.8
	c-4.9,15.2-15.2,28-28.8,36.1c13.2-1.4,26-5.1,37.8-10.2C375.1,169.9,363.9,181.5,351.1,190.8z"/>
</svg>
