<?xml version="1.0" encoding="utf-8"?>
<!-- Generator: Adobe Illustrator 24.2.1, SVG Export Plug-In . SVG Version: 6.00 Build 0)  -->
<svg version="1.2" baseProfile="tiny" xmlns="http://www.w3.org/2000/svg" xmlns:xlink="http://www.w3.org/1999/xlink" x="0px"
	 y="0px" viewBox="0 0 1707.98 738.44" overflow="visible" xml:space="preserve">
<g id="Ebene_1">
</g>
<g id="Ebene_3">
</g>
<g id="Ebene_4">
</g>
<g id="Ebene_5">
	<g>
		<path fill="#4A2770" d="M1417,738.16c47.99-0.12,89.16-22.42,112.96-61.17l7.33-11.95l0.01-1.65c3.61-7.68,6.59-15.82,8.9-24.34
			c7.06-25.95,6.38-49.38-2.01-69.62l-0.05-0.13c-2.43-5.81-6.92-14.43-14.62-23.06c9.96-8.7,15.44-19,18.36-24.49l0.38-0.71
			l63.56-129.33l0.84-2.21c3.36-8.86,4.51-12.85,6.28-19.36l86.36-294.71l0.12-0.46c7.25-26.6-2.38-44.67-8.77-53.06
			C1686.1,8.07,1669.62,0.08,1651.41,0c-3.07-0.01-6.25,0.2-9.45,0.62l-103.36,13.73c-27.74,3.7-48.78,22.43-56.47,50.2
			l-60.87,200.71c-1.68-6.44-4.3-11.73-6.93-15.84c-6.14-9.6-18.27-21.92-41.25-26.13l-2.18-0.4l-2.2-0.2
			c-15.82-1.47-32.57-2.25-49.8-2.33c-22.54-0.1-45.57,0.98-68.47,3.2c-58.84,5.74-104.33,19.3-139.07,41.43
			c-11.87,7.57-22.56,16.17-32.04,25.78c-2.47-8.53-6.52-14.91-9.71-18.95c-9.35-11.85-23.19-19.26-38.62-20.85l7.95-34.44
			c5.93-25.85-3.85-43.16-10.21-51.18c-10.19-12.85-25.5-20.26-42.02-20.33c-7.72-0.03-15.41,1.53-22.87,4.66L890,179.33
			c-22.12,8.01-36.55,24.53-41.8,47.87l-9.24,41.09c-19.94,2.63-36.22,13.79-45.72,30.62c-30.21-21.71-67.13-21.87-80.93-21.93
			c-11.01-0.05-23.03,0.58-36.74,1.92c-47.72,4.66-101.88,15.72-141.75,62.46c-4.31,5.06-8.34,10.4-12.13,16.01
			c-3.14-6.19-6.82-11.91-11.1-17.14c-29.67-36.27-75.82-36.47-90.99-36.54c-9.38-0.04-19.51,0.48-30.96,1.6
			c-11.69,1.14-22.34,2.69-32.2,4.68l17.74-32c21.14-37.59,2.27-62.81-4.67-70.21c-10.12-10.75-24.09-16.7-39.35-16.77
			c-2.81-0.01-5.69,0.18-8.48,0.55l-59.69,7.92c-21.74,2.9-38.63,15.17-50.21,36.49l-0.3,0.55l-37.6,73.54l-7.36-43.12l-0.66-2.4
			c-1.57-5.69-5.7-20.73-20.05-32.25c-9.81-7.92-21.84-12.13-34.82-12.18c-2.77-0.01-5.62,0.17-8.48,0.54l-52.41,6.97
			c-16.34,2.15-30.4,10.52-39.6,23.59C3.74,260.76-3.26,277,1.64,299.98l52.56,254.8L33.72,671.23c-3.48,19.65,2.06,33.8,7.52,42.38
			c5.15,8.12,12.37,14.67,20.95,19c7.56,3.83,15.84,5.8,24.59,5.83l0.19,0"/>
		<g>
			<path fill="#FFFFFF" d="M333.1,242.02c-0.92-0.97-2.61-1.23-4.85-0.92l-59.66,7.91c-6.21,0.83-9.23,4.06-12.88,10.79
				L149.9,466.75l-0.91-5.37l-31.34-183.61c-0.87-3.17-1.68-5.38-3.19-6.56c-1.23-1.01-2.93-1.34-5.49-1.01l-52.35,6.96
				c-5.11,0.67-7.85,4.23-6.05,12.53l54.53,264.34L82.96,679.94c-0.57,3.23-0.4,5.5,0.5,6.86c0.33,0.53,0.77,0.92,1.31,1.19
				c0.61,0.31,1.36,0.45,2.25,0.45l47.7-0.15c1.48-0.01,2.74-0.41,3.8-1.26c1.68-1.34,2.82-3.78,3.48-7.44l22.88-127.13
				l165.67-298.89C334.1,247.28,334.67,243.65,333.1,242.02z"/>
			<path fill="#FFFFFF" d="M393.51,355.04c-45.01,4.4-74.05,15.55-94.97,42.92c-7.1,9.31-13.29,20.51-18.83,33.96
				c-10.09,24.48-18.07,56.44-25.82,98.1c-20.02,107.5-13.61,147.46,38.27,157.64c10.3,2.01,22.39,2.87,36.45,2.83
				c16.63-0.03,34.46-0.67,51.39-2.48c12.17-1.29,23.9-3.21,34.37-5.96c4.19-0.61,6.92-2.99,8.22-9.48l9.85-49.28
				c1.19-5.95-0.5-8.88-5.07-8.77l-78.8,1.86c-37.46,0.89-45.91-8.06-36.87-59.93l139.36-5.76c12.05-0.51,15.7-4.86,18.13-16.96
				l3.79-18.83C499.99,378.11,484.08,346.19,393.51,355.04z M409.17,495.1L322,500.12c10.25-51.53,23.68-65.87,56.67-68.38
				C411.39,429.23,419.1,442.32,409.17,495.1z"/>
			<path fill="#FFFFFF" d="M680.43,328.65c-102.2,9.98-133.28,47.38-162.07,189.05c-25.15,123.78-15,164.14,57.4,171.12
				c8.53,0.83,17.94,1.18,28.25,1.16c11.38-0.03,23.25-0.28,35.1-0.9c22.61-1.15,45.17-3.59,64.25-8.22
				c4.86-0.65,8.04-3.22,9.58-10.22l11.62-53.12c1.41-6.43-0.55-9.57-5.84-9.45l-91.36,2.16c-43.31,1.03-53.03-8.59-42.4-64.37
				l161.52-6.67c14-0.58,18.26-5.29,21.14-18.37l4.47-20.32C804.13,352.7,785.71,318.37,680.43,328.65z M698.06,479.45l-100.96,5.81
				c12.03-55.48,27.62-70.99,65.84-73.91C700.88,408.47,709.78,422.51,698.06,479.45z"/>
			<path fill="#FFFFFF" d="M1023.02,300.76l-56.1,5.4l23.26-100.79c1.79-7.81-0.72-12.33-7.28-9.45l-75.26,30.2
				c-6.15,2.07-9.1,5.11-10.66,12.04l-17.18,76.39l-33.7,3.23c-6.22,0.61-9.8,4.26-11.29,11.03l-11.97,53.89
				c-1.49,6.71,0.56,9.85,6.72,9.37l33.38-2.6l-48.5,215.68c-18.53,82.42,24.37,84.27,73.29,84.17c12.71-0.04,29.32-1.42,50.98-6.2
				c6.82-1.37,10.59-4.76,12.5-12.88l13.6-57.8c1.77-7.51-0.58-10.18-7.75-10.01l-24.31,0.58c-25.76,0.61-33.24-4.56-26.54-33.54
				l43.05-186.72l55.57-4.32c6.75-0.53,11.26-4.33,12.92-11.39l13.31-56.64C1032.73,303.3,1029.84,300.1,1023.02,300.76z"/>
			<path fill="#FFFFFF" d="M1364.06,272.49c-39.54-3.67-79.03-2.04-108.79,0.86c-96.74,9.44-156.98,41.42-175.32,118.11l-3.24,13.54
				c-10.85,45.41-6.74,87.73,38.83,104.5l72.56,28.29c26.68,9.8,31.71,19,28.24,32.81l-1.64,6.54
				c-4.91,19.55-16.88,24.84-51.93,25.64l-130.37,2.93c-7.39,0.16-11.13,2.99-12.93,10.6L1006.17,672
				c-1.81,7.54-0.03,10.26,7.9,10.23c28.68,3.34,72.89,6.69,128.62,6.55c84.1-0.19,148.62-22.28,170.71-107.79l3.07-11.87
				c13.09-50.7,8.97-89-44.77-108.27l-78.57-28.07c-21.55-7.97-26.96-17.62-23.57-31.44l1.79-7.28
				c4.48-18.23,19.74-27.29,45.89-29.31l124.93-9.67c9.31-0.71,13.15-4.75,15.32-13.15l14.96-58.23
				C1374.25,276.77,1372.15,273.97,1364.06,272.49z"/>
			<path fill="#2CE59E" d="M1648.54,50.19l-103.34,13.73c-7.75,1.03-12.7,5.58-15.02,14.45l-87.1,287.2
				c-1.44,5.43-1.3,7.69-2.39,14.63l-10.07,121.25c-0.74,8.37,0.47,12.1,7.89,11.79l50.42-2.05c7.62-0.31,10.2-4.27,14.8-12.92
				l62.16-126.49c2.74-7.23,3.39-9.62,4.91-15.21l86.37-294.74C1659.64,52.71,1656.68,49.11,1648.54,50.19z M1497.99,588.57
				c-6.43-15.39-22.91-23.34-48.42-22.6c-41.47,1.21-70.59,23.74-80.66,61.99c-10,38.04,7.14,60.29,47.97,60.19
				c31.22-0.08,55.85-13.53,70.47-37.33v-0.02c4.53-7.33,8.1-15.67,10.6-24.89C1502.06,610.77,1501.99,598.21,1497.99,588.57z"/>
		</g>
	</g>
</g>
</svg>
