<?xml version="1.0" encoding="utf-8"?>
<!-- Generator: Adobe Illustrator 24.1.1, SVG Export Plug-In . SVG Version: 6.00 Build 0)  -->
<svg version="1.1" id="Ebene_1" xmlns="http://www.w3.org/2000/svg" xmlns:xlink="http://www.w3.org/1999/xlink" x="0px" y="0px"
	 viewBox="0 0 1728.2 753.8" style="enable-background:new 0 0 1728.2 753.8;" xml:space="preserve">
<style type="text/css">
	.st0{fill:#4A2770;}
	.st1{fill:#FFFFFF;}
	.st2{fill:#2CE59E;}
</style>
<g id="Ebene_1_1_">
</g>
<g id="Ebene_3">
</g>
<g id="Ebene_4">
</g>
<g id="Ebene_5">
	<g>
		<g>
			<g>
				<path class="st0" d="M340.7,248.9c-0.9-1-2.6-1.2-4.9-0.9l-59.7,7.9c-6.2,0.8-9.2,4.1-12.9,10.8L157.5,473.6l-0.9-5.4
					l-31.3-183.6c-0.9-3.2-1.7-5.4-3.2-6.6c-1.2-1-2.9-1.3-5.5-1l-52.3,7c-5.1,0.7-7.8,4.2-6,12.5l54.5,264.3l-22.3,126
					c-0.6,3.2-0.4,5.5,0.5,6.9c0.3,0.5,0.8,0.9,1.3,1.2c0.6,0.3,1.4,0.4,2.2,0.5l47.7-0.1c1.5,0,2.7-0.4,3.8-1.3
					c1.7-1.3,2.8-3.8,3.5-7.4l22.9-127.1l165.7-298.9C341.7,254.1,342.3,250.5,340.7,248.9z"/>
			</g>
			<g>
				<path class="st0" d="M401.1,361.9c-45,4.4-74.1,15.5-95,42.9c-7.1,9.3-13.3,20.5-18.8,34c-10.1,24.5-18.1,56.4-25.8,98.1
					c-20,107.5-13.6,147.5,38.3,157.6c10.3,2,22.4,2.9,36.4,2.8c16.6,0,34.5-0.7,51.4-2.5c12.2-1.3,23.9-3.2,34.4-6
					c4.2-0.6,6.9-3,8.2-9.5l9.9-49.3c1.2-6-0.5-8.9-5.1-8.8l-78.8,1.8c-37.5,0.9-45.9-8.1-36.9-59.9l139.4-5.8
					c12.1-0.5,15.7-4.9,18.1-17l3.8-18.8C507.6,385,491.7,353,401.1,361.9z M416.8,501.9l-87.2,5c10.3-51.5,23.7-65.9,56.7-68.4
					C419,436.1,426.7,449.2,416.8,501.9z"/>
			</g>
			<g>
				<path class="st0" d="M688,335.5c-102.2,10-133.3,47.4-162.1,189c-25.2,123.8-15,164.1,57.4,171.1c8.5,0.8,17.9,1.2,28.2,1.2
					c11.4,0,23.2-0.3,35.1-0.9c22.6-1.1,45.2-3.6,64.3-8.2c4.9-0.7,8-3.2,9.6-10.2l11.6-53.1c1.4-6.4-0.5-9.6-5.8-9.4l-91.4,2.2
					c-43.3,1-53-8.6-42.4-64.4l161.5-6.7c14-0.6,18.3-5.3,21.1-18.4l4.5-20.3C811.7,359.6,793.3,325.2,688,335.5z M705.7,486.3
					l-101,5.8c12-55.5,27.6-71,65.8-73.9C708.5,415.3,717.4,429.4,705.7,486.3z"/>
			</g>
			<g>
				<path class="st0" d="M1030.6,307.7l-56.1,5.4l23.3-100.8c1.8-7.8-0.7-12.3-7.3-9.5L915.3,233c-6.1,2.1-9.1,5.1-10.7,12
					l-17.2,76.4l-33.7,3.2c-6.2,0.6-9.8,4.3-11.3,11l-12,53.9c-1.5,6.7,0.6,9.9,6.7,9.4l33.4-2.6L822,612
					c-18.5,82.4,24.4,84.3,73.3,84.2c12.7,0,29.3-1.4,51-6.2c6.8-1.4,10.6-4.8,12.5-12.9l13.6-57.8c1.8-7.5-0.6-10.2-7.8-10
					l-24.3,0.6c-25.8,0.6-33.2-4.6-26.5-33.5l43.1-186.7l55.6-4.3c6.7-0.5,11.3-4.3,12.9-11.4l13.3-56.6
					C1040.3,310.2,1037.5,307,1030.6,307.7z"/>
			</g>
			<g>
				<path class="st0" d="M1371.7,279.4c-39.5-3.7-79-2-108.8,0.8c-96.7,9.4-157,41.4-175.3,118.1l-3.2,13.5
					c-10.9,45.4-6.7,87.7,38.8,104.5l72.6,28.3c26.7,9.8,31.7,19,28.2,32.8l-1.6,6.5c-4.9,19.5-16.9,24.8-51.9,25.6l-130.4,2.9
					c-7.4,0.2-11.1,3-12.9,10.6l-13.3,55.7c-1.8,7.5,0,10.3,7.9,10.2c28.7,3.3,72.9,6.7,128.6,6.6c84.1-0.2,148.6-22.3,170.7-107.8
					l3.1-11.9c13.1-50.7,9-89-44.8-108.3l-78.6-28.1c-21.6-8-27-17.6-23.6-31.4l1.8-7.3c4.5-18.2,19.7-27.3,45.9-29.3l124.9-9.7
					c9.3-0.7,13.2-4.8,15.3-13.1l15-58.2C1381.9,283.7,1379.8,280.9,1371.7,279.4z"/>
			</g>
			<path class="st0" d="M1704.3,28.9c-10.6-13.9-27-21.9-45.3-22c-3.1,0-6.2,0.2-9.5,0.6l-103.4,13.7c-27.7,3.7-48.8,22.4-56.5,50.2
				l-60.9,200.7c-1.7-6.4-4.3-11.7-6.9-15.8c-6.1-9.6-18.3-21.9-41.2-26.1l-2.2-0.4l-2.2-0.2c-15.8-1.5-32.6-2.3-49.8-2.3
				c-22.5-0.1-45.6,1-68.5,3.2c-58.8,5.7-104.3,19.3-139.1,41.4c-11.9,7.6-22.6,16.2-32,25.8c-2.5-8.5-6.5-14.9-9.7-19
				c-9.3-11.9-23.2-19.3-38.6-20.8l7.9-34.4c5.9-25.8-3.8-43.2-10.2-51.2c-10.2-12.8-25.5-20.3-42-20.3c-7.7,0-15.4,1.5-22.9,4.7
				l-73.8,29.6c-22.1,8-36.6,24.5-41.8,47.9l-9.2,41.1c-19.9,2.6-36.2,13.8-45.7,30.6c-30.2-21.7-67.1-21.9-80.9-21.9
				c-11,0-23,0.6-36.7,1.9c-47.7,4.7-101.9,15.7-141.8,62.4c-4.3,5.1-8.3,10.4-12.1,16c-3.1-6.2-6.8-11.9-11.1-17.1
				c-29.7-36.3-75.8-36.5-91-36.5c-9.4,0-19.5,0.5-31,1.6c-11.7,1.1-22.3,2.7-32.2,4.7l17.7-32c21.1-37.6,2.3-62.8-4.7-70.2
				c-10.1-10.7-24.1-16.7-39.4-16.8c-2.8,0-5.7,0.2-8.5,0.6l-59.7,7.9c-21.7,2.9-38.6,15.2-50.2,36.5l-0.3,0.5L181.3,317l-7.4-43.1
				l-0.7-2.4c-1.6-5.7-5.7-20.7-20-32.3c-9.8-7.9-21.8-12.1-34.8-12.2c-2.8,0-5.6,0.2-8.5,0.5l-52.4,7
				c-16.3,2.1-30.4,10.5-39.6,23.6c-6.8,9.6-13.8,25.8-8.9,48.8l52.5,254.8L41.3,678c-3.5,19.6,2.1,33.8,7.5,42.4
				c5.1,8.1,12.4,14.7,21,19c7.6,3.8,15.8,5.8,24.6,5.8h0.2l48.1-0.2c12.9-0.1,24.9-4.3,34.8-12.3c7.8-6.3,17.8-17.9,21.4-37.5
				l5.9-32.9c0.1,0.3,0.1,0.5,0.2,0.8c6.9,30.4,27.2,69,85.3,80.4c12.6,2.5,92.4,1.6,102.7,1c22.8-1.2,28.1-3.9,39.9-6.8
				c23.7-4.9,41.3-23.1,46.4-48.4c2.1,3.9,4.5,7.6,7.1,11.1c28.8,38.9,76.8,42.8,92.5,44.3c9.1,0.9,58.5,0.5,70.1-0.1
				c27.7-1.4,52.2-3.2,72-7.9c24.8-4.6,42.8-22.5,48.5-48.6l2.3-10.5c3.1,11.2,8.1,22.2,16.1,32.2c28.6,36,76.1,35.2,101.5,35.3
				c2.2,0,4.4,0,6.6,0c19.2-0.1,38.8-1.5,60.9-6.3c10.3-2.1,19.4-6.3,27-12.2c7.5,5.9,18.2,10,34.4,12.3c25.9,3.7,67.7,6,122.8,6.2
				c3.1,0,6.2,0,9.4,0c56-0.1,98.1-8.6,132.7-27.7c17.1-9.4,32-21.3,44.5-35.4c3.4,11.4,8.7,20.4,13.9,27.3
				c12.4,16.2,36.7,35.5,82,35.7h1.1c48-0.1,89.2-22.4,113-61.2l7.3-12v-1.6c3.6-7.7,6.6-15.8,8.9-24.3c7.1-26,6.4-49.4-2-69.6
				l-0.1-0.1c-2.4-5.8-6.9-14.4-14.6-23.1c10-8.7,15.4-19,18.4-24.5l0.4-0.7l63.6-129.3l0.8-2.2c3.4-8.9,4.5-12.9,6.3-19.4
				l86.4-294.7l0.1-0.5C1720.3,55.3,1710.7,37.3,1704.3,28.9z"/>
		</g>
		<g>
			<g>
				<path class="st1" d="M340.7,248.9c-0.9-1-2.6-1.2-4.9-0.9l-59.7,7.9c-6.2,0.8-9.2,4.1-12.9,10.8L157.5,473.6l-0.9-5.4
					l-31.3-183.6c-0.9-3.2-1.7-5.4-3.2-6.6c-1.2-1-2.9-1.3-5.5-1l-52.3,7c-5.1,0.7-7.8,4.2-6,12.5l54.5,264.3l-22.3,126
					c-0.6,3.2-0.4,5.5,0.5,6.9c0.3,0.5,0.8,0.9,1.3,1.2c0.6,0.3,1.4,0.4,2.2,0.5l47.7-0.1c1.5,0,2.7-0.4,3.8-1.3
					c1.7-1.3,2.8-3.8,3.5-7.4l22.9-127.1l165.7-298.9C341.7,254.1,342.3,250.5,340.7,248.9z"/>
			</g>
			<g>
				<path class="st1" d="M401.1,361.9c-45,4.4-74.1,15.5-95,42.9c-7.1,9.3-13.3,20.5-18.8,34c-10.1,24.5-18.1,56.4-25.8,98.1
					c-20,107.5-13.6,147.5,38.3,157.6c10.3,2,22.4,2.9,36.4,2.8c16.6,0,34.5-0.7,51.4-2.5c12.2-1.3,23.9-3.2,34.4-6
					c4.2-0.6,6.9-3,8.2-9.5l9.9-49.3c1.2-6-0.5-8.9-5.1-8.8l-78.8,1.8c-37.5,0.9-45.9-8.1-36.9-59.9l139.4-5.8
					c12.1-0.5,15.7-4.9,18.1-17l3.8-18.8C507.6,385,491.7,353,401.1,361.9z M416.8,501.9l-87.2,5c10.3-51.5,23.7-65.9,56.7-68.4
					C419,436.1,426.7,449.2,416.8,501.9z"/>
			</g>
			<g>
				<path class="st1" d="M688,335.5c-102.2,10-133.3,47.4-162.1,189c-25.2,123.8-15,164.1,57.4,171.1c8.5,0.8,17.9,1.2,28.2,1.2
					c11.4,0,23.2-0.3,35.1-0.9c22.6-1.1,45.2-3.6,64.3-8.2c4.9-0.7,8-3.2,9.6-10.2l11.6-53.1c1.4-6.4-0.5-9.6-5.8-9.4l-91.4,2.2
					c-43.3,1-53-8.6-42.4-64.4l161.5-6.7c14-0.6,18.3-5.3,21.1-18.4l4.5-20.3C811.7,359.6,793.3,325.2,688,335.5z M705.7,486.3
					l-101,5.8c12-55.5,27.6-71,65.8-73.9C708.5,415.3,717.4,429.4,705.7,486.3z"/>
			</g>
			<g>
				<path class="st1" d="M1030.6,307.7l-56.1,5.4l23.3-100.8c1.8-7.8-0.7-12.3-7.3-9.5L915.3,233c-6.1,2.1-9.1,5.1-10.7,12
					l-17.2,76.4l-33.7,3.2c-6.2,0.6-9.8,4.3-11.3,11l-12,53.9c-1.5,6.7,0.6,9.9,6.7,9.4l33.4-2.6L822,612
					c-18.5,82.4,24.4,84.3,73.3,84.2c12.7,0,29.3-1.4,51-6.2c6.8-1.4,10.6-4.8,12.5-12.9l13.6-57.8c1.8-7.5-0.6-10.2-7.8-10
					l-24.3,0.6c-25.8,0.6-33.2-4.6-26.5-33.5l43.1-186.7l55.6-4.3c6.7-0.5,11.3-4.3,12.9-11.4l13.3-56.6
					C1040.3,310.2,1037.5,307,1030.6,307.7z"/>
			</g>
			<g>
				<path class="st1" d="M1371.7,279.4c-39.5-3.7-79-2-108.8,0.8c-96.7,9.4-157,41.4-175.3,118.1l-3.2,13.5
					c-10.9,45.4-6.7,87.7,38.8,104.5l72.6,28.3c26.7,9.8,31.7,19,28.2,32.8l-1.6,6.5c-4.9,19.5-16.9,24.8-51.9,25.6l-130.4,2.9
					c-7.4,0.2-11.1,3-12.9,10.6l-13.3,55.7c-1.8,7.5,0,10.3,7.9,10.2c28.7,3.3,72.9,6.7,128.6,6.6c84.1-0.2,148.6-22.3,170.7-107.8
					l3.1-11.9c13.1-50.7,9-89-44.8-108.3l-78.6-28.1c-21.6-8-27-17.6-23.6-31.4l1.8-7.3c4.5-18.2,19.7-27.3,45.9-29.3l124.9-9.7
					c9.3-0.7,13.2-4.8,15.3-13.1l15-58.2C1381.9,283.7,1379.8,280.9,1371.7,279.4z"/>
			</g>
			<g>
				<path class="st2" d="M1656.2,57.1l-103.3,13.7c-7.8,1-12.7,5.6-15,14.4l-87.1,287.2c-1.4,5.4-1.3,7.7-2.4,14.6l-10.1,121.2
					c-0.7,8.4,0.5,12.1,7.9,11.8l50.4-2c7.6-0.3,10.2-4.3,14.8-12.9l62.2-126.5c2.7-7.2,3.4-9.6,4.9-15.2l86.4-294.7
					C1667.3,59.7,1664.3,56,1656.2,57.1z M1505.6,595.5c-6.4-15.4-22.9-23.3-48.4-22.6c-41.5,1.2-70.6,23.7-80.7,62
					c-10,38,7.1,60.3,48,60.2c31.2-0.1,55.9-13.5,70.5-37.3l0,0c4.5-7.3,8.1-15.7,10.6-24.9C1509.7,617.7,1509.6,605.1,1505.6,595.5
					z"/>
			</g>
		</g>
	</g>
</g>
</svg>
