<?xml version="1.0" encoding="utf-8"?>
<!-- Generator: Adobe Illustrator 24.1.1, SVG Export Plug-In . SVG Version: 6.00 Build 0)  -->
<svg version="1.1" xmlns="http://www.w3.org/2000/svg" xmlns:xlink="http://www.w3.org/1999/xlink" x="0px" y="0px"
	 viewBox="0 0 1984 669.3" style="enable-background:new 0 0 1984 669.3;" xml:space="preserve">
<style type="text/css">
	.st0{fill:#003968;}
	.st1{fill:#004385;}
	.st2{fill:url(#SVGID_1_);}
	.st3{fill:#BD1B49;}
	.st4{fill:#FFFFFF;}
	.st5{display:none;}
	.st6{display:inline;fill:#004385;}
	.st7{display:inline;fill:none;}
	.st8{display:inline;}
	.st9{font-family:'EdoSZ';}
	.st10{font-size:378px;}
	.st11{display:inline;fill:#FFFFFF;}
	.st12{font-size:668px;}
	.st13{display:inline;fill:#B70639;}
	.st14{font-size:144px;}
</style>
<g id="Ebene_1">
	<path class="st0" d="M54.8,653.1c-11,0-20-9-20-20v-0.3l40-596.9c0.2-10.8,9.1-19.6,20-19.6h452.9c11,0,20,9,20,20v0.3l-40,596.9
		c-0.2,10.8-9.1,19.6-20,19.6H54.8z"/>
	<path class="st1" d="M507.7,643.1H54.8c-5.5,0-10-4.5-10-10l40-596.9c0-5.5,4.5-10,10-10h452.9c5.5,0,10,4.5,10,10l-40,596.9
		C517.7,638.6,513.2,643.1,507.7,643.1z"/>
	<radialGradient id="SVGID_1_" cx="-10.0952" cy="-176.4444" r="1046.3019" gradientUnits="userSpaceOnUse">
		<stop  offset="0" style="stop-color:#004385"/>
		<stop  offset="1" style="stop-color:#003968"/>
	</radialGradient>
	<path class="st2" d="M507.7,643.1H54.8c-5.5,0-10-4.5-10-10l40-596.9c0-5.5,4.5-10,10-10h452.9c5.5,0,10,4.5,10,10l-40,596.9
		C517.7,638.6,513.2,643.1,507.7,643.1z"/>
	<path class="st0" d="M616.4,579.5c-27.1,0-49.7-5.6-67.2-16.8c-17.6-11.1-30.3-27.8-37.8-49.5l-17.1-25.7l5.9-5.9l-2.4-16.9v-7.1
		c0-20.6,16.7-51.8,52.7-98.3l0.5-0.6l22.2-22.2c0.9-9.4,8.5-16.8,22.7-22c10.9-4,26.4-7.3,47.3-9.9l0.8-0.1h0.8
		c27,0,52.5,8.1,75.8,24.1l11.9,8.2l-7.7,7.7l20.8,31.2h-16.1l1.2,26.2h10.7v24.6c0,7.9-2.7,23.6-24.3,69.6h7.6l-13.9,19.1
		c-15.7,21.5-39,41.6-69.5,59.7l-1.8,1.1l-18.9,3.8H616.4z M568.8,481.1c0.5,11.1,7.1,21.1,19.9,30.4c12.6-0.4,34.4-12.3,67.2-65.8
		c11.8-26,14.3-38.6,14.3-44.6v-21.3c-2.4-1-7.5-2.6-17.8-4l-2.8,2.8h-8.9l-29.3,25.1H607C606.3,403.8,590.1,404.6,568.8,481.1z"/>
	<g>
		<path class="st0" d="M194.7,591l-22.2-27.7h-10.7v-15.5c0-7.5,3.1-19.9,22.2-24.9v-5L167,495.2l23.3-262.5H210l8-105.4
			c0,0,9.4,0,9.4,0c0.3-0.7,0.9-2.5,0.9-6.6v-4.1l11.4-11.4h15.2c4.8,0,13.4,2,17.8,15.2c1.5,4.5,2.5,10.1,2.9,17.1l19.3-12.9
			l14.6,14.6l-26.7,299.3c31.2-10.1,89.1-21.2,175.7-33.7l0.7-0.1h16.3V428l5.6-1.1h23.9l48.1,6.9V448c0,13.9-15.8,20.8-27.6,24.7
			c0,0-0.1,0-0.1,0v27.5l-190,46.1L217.9,591H194.7z"/>
		<path class="st0" d="M254.9,115.3c7.4,0,11.1,11.1,11.1,33.3h11.1l16.6-11.1l5.5,5.5l-27.7,310.5c23.5-11.1,86.3-24,188.5-38.8
			h5.5v5.5c-129.4,21.1-194.1,37.7-194.1,49.9l61-16.6v5.5l105.4-22.2v5.5l5.5-5.5h5.5l5.5,5.5l27.7-5.5h22.2l38.8,5.5v5.5
			c0,11.1-27.7,20.3-83.2,27.7v5.5l5.5-5.5h5.5l38.8,5.5l5.5-5.5v16.6l-183,44.4L216.1,581h-16.6l-22.2-27.7h-5.5v-5.5
			c0-9.3,7.4-14.9,22.2-16.6v-16.6l-16.6-22.2l22.2-249.5h5.5V265l-5.5,38.8h11.1l-11.1,72.1l5.5,5.5l-5.5,22.2v27.7h5.5l22.2-293.9
			c7.4,0,11.1-5.5,11.1-16.6l5.5-5.5H254.9z"/>
	</g>
	<g>
		<path class="st3" d="M833.1,83.4l-0.2,3.8h-5.6l-0.1,1.9h1.9l35.9-1.9h7.5l-0.1,1.9l-3.9,3.8l1.8,1.9l-0.1,3.8
			c-0.2,6.5-2.3,10.3-6.1,11.3l1.8,5.6l-2.2,5.6l-1.8-1.9h-1.9c-17.6,0.9-26.4,2.1-26.5,3.8l-1.9-1.9c-21.5,3.4-32.4,9.7-32.7,18.8
			l-0.6,15.1l45.3-3.8l1.9,1.9l-0.1,1.9H836l-0.1,1.9c6.3,0,9.3,1.3,9.2,3.8v1.9c-0.2,6.3-1.6,9.4-4.1,9.4h-11.3l-0.1,1.9h13.2
			l-0.1,3.8c-0.1,2.1-15.9,6.5-47.6,13.2l-2.7,20.7l1.9,1.9v1.9l-2,1.9l-0.1,1.9l1.7,5.6h-1.9l1.7,5.6c0.4,5.3-3.9,15.1-13.2,29.2
			l-15.1-1.9l2.5-18.8c-4.8,0-7.2-2.3-7.2-7v-0.6c1.9-3.2,4.2-23,6.9-59.4h3.8l-1.8-1.9l2.4-15.1l1.8,1.9h1.9l2.7-18.8l0.3-7.5
			c-6.3,0-9.4-1.3-9.4-3.8l4-5.6c-5,0-7.4-1.9-7.2-5.6c0.4-11.3,2.4-16.9,6.2-16.9c6.3,0,9.5-3.1,9.7-9.4h1.9l1.8,1.9l4-3.8h5.6
			l5.4,5.6L833.1,83.4z M770.6,188.8l-0.8,20.7h1.9l0.8-20.7H770.6z M773.4,242.5l-0.3,7.5h1.9l0.3-7.5H773.4z M820.6,113.5v1.9h1.9
			l37.6-3.8l0.1-1.9l-5.5-1.9l-2,1.9h-1.9l-1.8-1.9L820.6,113.5z M838.3,92.8l-0.1,1.9h5.6l20.8-1.9v-1.9h-11.3L838.3,92.8z"/>
		<path class="st3" d="M941.8,80.6c0.8,3.8,5.8,5.6,15.1,5.6l15.1,65.9h13.2v1.9l-11.3,1.9v1.9c3.8,0,5.6,1.3,5.6,3.8h15.1v1.9
			c0,2.8-6.3,5.3-18.8,7.5l3.8,11.3l-1.9,5.6l1.9,11.3l-1.9,1.9h1.9l-1.9,1.9l1.9,22.6v11.3l-1.9-1.9h-1.9l5.6,28.2h-3.8
			c0-3.8-1.3-5.6-3.8-5.6v1.9l1.9,5.6h-1.9l-1.9-1.9h-1.9c0,3.8-1.3,5.6-3.8,5.6l-9.4-32H955v7.5h-1.9l-3.8-22.6l5.6,3.8v-1.9
			c-1-11.3-2.9-16.9-5.6-16.9l1.9-1.9v-5.6h-3.8v5.6h-1.9v-7.5l1.9-1.9h-1.9l-1.9,1.9v-7.5h1.9l1.9,1.9h1.9l-1.9-1.9v-11.3
			l-41.4,9.4v3.8l13.2-3.8l7.5,1.9l9.4-1.9v3.8c-26.4,4.7-39.5,11-39.5,18.8c-3.3,13.8-7.1,22.6-11.3,26.4v3.8h-5.6l-1.9-1.9h-1.9
			v1.9l-5.6-3.8l3.8-11.3h-1.9c-3.8,0-5.6,5-5.6,15.1l-3.8-3.8l1.9-11.3l-5.6-5.6l32-77.2h1.9c0,3.8,1.3,5.6,3.8,5.6l1.9-9.4
			l-1.9,1.9h-1.9v-7.5l1.9-9.4l1.9,1.9h1.9l-1.9-1.9V122l3.8-7.5h1.9l1.9,1.9h1.9v-1.9c0-2.5-1.9-3.8-5.6-3.8l9.4-26.4h7.5l-1.9,1.9
			v1.9C926.1,83.1,934.2,80.6,941.8,80.6z M887.2,161.5l-1.9,7.5h1.9l3.8-7.5H887.2z M892.9,152.1L891,154v3.8h1.9l1.9-5.6H892.9z
			 M904.2,159.6l-1.9,7.5h1.9l1.9-1.9v-5.6H904.2z M913.6,135.2l-3.8,13.2l-1.9-1.9h-1.9l1.9,7.5h1.9l5.6-16.9v-1.9H913.6z
			 M930.5,123.9l-15.1,39.5h3.8c12.5,0,19.5-3.8,20.7-11.3l-7.5-28.2H930.5z M919.2,167.2v1.9h3.8c11.3-1.3,16.9-3.1,16.9-5.6h-1.9
			L919.2,167.2z M945.6,208.6h3.8v11.3h-1.9L945.6,208.6z M953.1,227.4v3.8l5.6-1.9v-3.8L953.1,227.4z M971.9,221.8v3.8l1.9,7.5h1.9
			v-3.8l-1.9-7.5H971.9z"/>
		<path class="st3" d="M1024.5,88.1h1.9v5.6h1.9V90h7.5c2.5,0,3.8,3.8,3.8,11.3l5.6,1.9c0-3.8,1.3-5.6,3.8-5.6l1.9,1.9v1.9
			l-9.4,50.8l28.2-1.9h18.8l1.9-9.4l-1.9-1.9h3.8l-1.9-13.2v-1.9h3.8l-1.9-1.9v-3.8h3.8v-3.8h-3.8v-1.9h3.8l-1.9-1.9V97.5l1.9,1.9
			h1.9v-7.5l-1.9-1.9v-1.9h5.6l-9.4,64c2.5,0,6.3-20.7,11.3-62.1l7.5-1.9c1.3,10,3.1,15.1,5.6,15.1h1.9c0-3.8,1.3-5.6,3.8-5.6h1.9
			c-6.3,43.4-15.7,94.2-28.2,152.5h-1.9l-1.9-1.9l1.9-1.9v-15.1h-1.9l-5.6,18.8h-5.6c-2.5,0-3.8-3.8-3.8-11.3h-1.9v7.5h-1.9
			c-2.5,0-3.8-1.9-3.8-5.6c0-9.1,3.8-30.4,11.3-64h-1.9l-24.5,1.9l-16.9-1.9c-3.8,30.1-7.5,50.2-11.3,60.2h-5.6
			c-2.5,0-3.8-5-3.8-15.1h-1.9l-1.9,13.2l-3.8-3.8v-5.6l1.9-1.9v-1.9l-1.9-1.9h-1.9l-1.9,1.9h-1.9l-1.9-7.5
			c5-42.4,10.7-73.1,16.9-92.2h1.9l-1.9-1.9v-5.6l5.6-20.7h-1.9L1024.5,88.1z M1003.8,223.7h1.9v9.4h-1.9V223.7z M1015.1,159.6v7.5
			h1.9v-7.5H1015.1z M1018.9,140.8l-1.9,9.4v1.9h1.9l1.9-7.5v-3.8H1018.9z M1020.8,131.4v7.5h1.9v-7.5H1020.8z M1024.5,110.7
			l-1.9,15.1v3.8h1.9l1.9-15.1v-3.8H1024.5z M1026.4,95.6v13.2h1.9V95.6H1026.4z M1082.9,193.5v7.5h1.9v-7.5H1082.9z M1086.7,178.5
			l-1.9,11.3v1.9h1.9l1.9-9.4v-3.8H1086.7z M1096.1,214.2l-1.9,9.4v5.6h1.9l1.9-13.2v-1.9H1096.1z"/>
		<path class="st3" d="M1164.2,88.2h22.6c26.4,4.9,39.5,16.2,39.5,33.9v11.3l-18.8,26.4h1.9l18.8-16.9v3.8
			c-6.4,14.3-14.6,23.7-24.5,28.2l-11.3,3.8v7.5c2.7,0,15.9,16.3,39.5,48.9c5,2.1,10,7.1,15.1,15.1v1.9l-9.4-7.5v1.9
			c6.3,6.6,9.4,11.7,9.4,15.1h-1.9l-9.4,5.6h-1.9l-3.8-5.6l-1.9,1.9h-1.9c-25.1-20.5-42.7-41.2-52.7-62.1l-9.4-18.8
			c-4.4,0-6.9,7.5-7.5,22.6c0.8,12.6,0.2,20.2-1.9,22.9c-3.7,3-4.3,6.1-1.9,9.1v3.8h-5.6c-2.5,0-3.8-2.5-3.8-7.5h-1.9
			c0,5-2.4,6.9-7.1,5.6l-8.3-11.1l2.2-17.2v-7.5l11.3-52.7h1.9v7.5h1.9l9.4-39.5c-2.5,0-3.8,2.5-3.8,7.5h-1.9v-3.8h-11.3v-1.9
			c0-2.5,3.8-4.4,11.3-5.6v-1.9h-3.8l-11.3,3.8h-1.9c0-2.5,2.5-3.8,7.5-3.8v-1.9c-5,0-7.5-1.9-7.5-5.6L1164.2,88.2z M1137.8,167.3
			v7.5h1.9v-7.5H1137.8z M1141.6,142.8h1.9v7.5h-1.9V142.8z M1145.4,125.9h1.9v5.6l-1.9,7.5h-1.9v-5.6L1145.4,125.9z M1166.1,156
			h1.9c19.7-9.4,33.5-19.5,41.4-30.1v-3.8c0-4.3-7.5-8.7-22.6-13.2l-11.3,3.8L1166.1,156z M1194.3,223.8v1.9l7.5,7.5
			C1199.4,227.5,1196.9,224.4,1194.3,223.8z M1209.4,133.4l-9.4,13.2h1.9l9.4-11.3v-1.9H1209.4z M1203.7,108.9
			c2.5,5.7,5,8.8,7.5,9.4v-3.8L1203.7,108.9z M1203.7,236.9v1.9l7.5,5.6v-1.9L1203.7,236.9z M1215,120.2l-1.9,9.4h1.9l1.9-1.9v-7.5
			H1215z M1228.2,137.2h3.8l-1.9,5.6h-1.9V137.2z"/>
		<path class="st3" d="M1297.2,86.5c3.3,2.5,13.9,3.8,31.7,3.8l-0.1,1.9h-13.2l-0.1,1.9c15.7,0,25.5,3.8,29.5,11.3l-0.2,3.8h-9.4
			l-0.1,1.9l13.1,1.9l-0.1,1.9h-11.3l-0.1,1.9c3.8,0,5.6,1.3,5.4,3.8c-22.4,0-42.3,8.2-59.9,24.5l-0.1,1.9
			c24.3,6.5,43.5,20.9,57.7,43.3l-0.1,1.9c-4.6,16.2-17.4,31.3-38.4,45.2l-11.5,1.9l-0.1,1.9h3.8c-0.1,3.4-11.7,7.2-34.5,11.3
			l0.2-3.8h9.4l0.2-1.9c-8,0-15.3-4.4-21.8-13.2c-5.6-2.9-8.4-8.4-8.4-16.5c0-0.7,0-1.5,0.1-2.3l5.9-3.8l5.4,3.8h3.8
			c35.4-5.5,53.7-16.8,54.8-33.9c-14.8-7.5-24.7-11.3-29.5-11.3l-0.1,1.9l-18.5-7.5l1.8,1.9l-0.1,3.8
			c-15.7-11.5-23.3-20.3-22.9-26.4l14.7-26.4l9.9-7.5l-0.2,3.8L1297.2,86.5z M1270.8,242.7l-0.1,1.9h7.5l9.5-1.9v-1.9h-1.9
			L1270.8,242.7z M1271.5,137.3l-0.1,1.9l33.2-20.7l15.3-3.8l0.2-3.8h-3.8C1296.5,118.3,1281.5,127.1,1271.5,137.3z M1281.9,214.5
			h1.9l4-3.8h-1.9L1281.9,214.5z M1292.2,229.5v1.9h1.9l7.9-5.6L1292.2,229.5z M1315.8,214.5l-8.1,9.4h1.9l8.1-9.4H1315.8z"/>
		<path class="st3" d="M1413.5,91.8h1.9c18.2,0,32,7.5,41.4,22.6v1.9h-3.8l1.9,1.9v1.9c-7.5-0.9-11.3-2.1-11.3-3.8
			c-29.3,0-51.3,15.1-65.9,45.2l-3.8,13.2l5.6,35.8h5.6c15.7,0,33.2-11.3,52.7-33.9h1.9v1.9c-13.4,19.3-28.4,30.6-45.2,33.9v1.9h1.9
			c13.1,0,29.5-11.3,48.9-33.9l5.6,7.5v5.6c0,4.1-9.4,13.5-28.2,28.2l-1.9,1.9h-1.9v3.8c21.3-10.4,32-17.9,32-22.6h3.8v1.9
			c-15.8,18.8-34,28.2-54.6,28.2v1.9h9.4l7.5-1.9h1.9v1.9l-22.6,3.7c-9.5,0-19.6-6.9-30.1-20.6v1.9l9.4,15.1v1.8h-5.6
			c-11.7-8-18.6-18-20.7-30l-1.9-24.5c0-31.4,6.3-51.5,18.8-60.2v1.9l-11.3,18.8v1.9h1.9c0-12,15.7-28.9,47.1-50.8l-5.6,1.9h-1.9
			v-1.9L1413.5,91.8z M1353.3,202.8v5.6l1.9,7.5h1.9v-1.9l-1.9-11.3H1353.3z M1375.9,112.5v1.9l-9.4,9.4v-1.9L1375.9,112.5z
			 M1392.8,99.3h1.9v1.9l-13.2,5.6C1381.5,104.3,1385.3,101.8,1392.8,99.3z"/>
		<path class="st3" d="M1484.1,88.1h1.9v5.6h1.9V90h7.5c2.5,0,3.8,3.8,3.8,11.3l5.6,1.9c0-3.8,1.3-5.6,3.8-5.6l1.9,1.9v1.9
			l-9.4,50.8l28.2-1.9h18.8l1.9-9.4l-1.9-1.9h3.8l-1.9-13.2v-1.9h3.8l-1.9-1.9v-3.8h3.8v-3.8h-3.8v-1.9h3.8l-1.9-1.9V97.5l1.9,1.9
			h1.9v-7.5l-1.9-1.9v-1.9h5.6l-9.4,64c2.5,0,6.3-20.7,11.3-62.1l7.5-1.9c1.3,10,3.1,15.1,5.6,15.1h1.9c0-3.8,1.3-5.6,3.8-5.6h1.9
			c-6.3,43.4-15.7,94.2-28.2,152.5h-1.9l-1.9-1.9l1.9-1.9v-15.1h-1.9l-5.6,18.8h-5.6c-2.5,0-3.8-3.8-3.8-11.3h-1.9v7.5h-1.9
			c-2.5,0-3.8-1.9-3.8-5.6c0-9.1,3.8-30.4,11.3-64h-1.9l-24.5,1.9l-16.9-1.9c-3.8,30.1-7.5,50.2-11.3,60.2h-5.6
			c-2.5,0-3.8-5-3.8-15.1h-1.9l-1.9,13.2l-3.8-3.8v-5.6l1.9-1.9v-1.9l-1.9-1.9h-1.9l-1.9,1.9h-1.9l-1.9-7.5
			c5-42.4,10.7-73.1,16.9-92.2h1.9l-1.9-1.9v-5.6l5.6-20.7h-1.9L1484.1,88.1z M1463.4,223.7h1.9v9.4h-1.9V223.7z M1474.7,159.6v7.5
			h1.9v-7.5H1474.7z M1478.4,140.8l-1.9,9.4v1.9h1.9l1.9-7.5v-3.8H1478.4z M1480.3,131.4v7.5h1.9v-7.5H1480.3z M1484.1,110.7
			l-1.9,15.1v3.8h1.9l1.9-15.1v-3.8H1484.1z M1486,95.6v13.2h1.9V95.6H1486z M1542.4,193.5v7.5h1.9v-7.5H1542.4z M1546.2,178.5
			l-1.9,11.3v1.9h1.9l1.9-9.4v-3.8H1546.2z M1555.6,214.2l-1.9,9.4v5.6h1.9l1.9-13.2v-1.9H1555.6z"/>
		<path class="st3" d="M1615.6,89.4l3.8,5.6l-1.9,9.4l1.9,1.9h1.9l1.9-9.4h3.8l1.9,5.6c-10,36.2-15.1,64.4-15.1,84.7
			c1.3,13.8,3.8,20.7,7.5,20.7l43.3-48.9l1.9-9.4V97l3.8-3.8c2.5,0,3.8,2.5,3.8,7.5h1.9c0-5,3.1-7.5,9.4-7.5l3.8,7.5l-1.9,9.4
			c2.5,0,3.8-3.1,3.8-9.4h3.8l1.9,1.9h1.9l-9.4,135.5l-1.9,7.5c-5,0-7.5,2.5-7.5,7.5h-7.5l1.9-18.8h-3.8v11.3l-5.6,5.6v-1.9
			l1.9-18.8c-3.8,0-5.6-2.5-5.6-7.5h-1.9l-32,15.1l-15.1-3.8v1.9c-13,0-21.8-18.8-26.4-56.5c5-56.5,10-84.7,15.1-84.7v-1.9h1.9v7.5
			h-3.8v3.8l1.9,1.9v1.9h-1.9l1.9,5.6l-5.6,9.4h1.9l1.9-1.9l-5.6,33.9v7.5h1.9C1598.9,113.9,1605.8,89.4,1615.6,89.4z M1593,164.7
			l-1.9,1.9v15.1h1.9l1.9-16.9H1593z M1596.8,209.9v3.8l1.9,5.6h1.9v-3.8l-1.9-5.6H1596.8z M1610,219.3v1.9c0,4.4,5.6,8.1,16.9,11.3
			h3.8v-1.9C1623.5,230.6,1616.6,226.8,1610,219.3z M1651.4,179.8l-13.2,15.1h1.9l13.2-15.1H1651.4z"/>
		<path class="st3" d="M1728.5,88.1c2.5,0,3.8,3.8,3.8,11.3h3.8l5.6-3.8l1.9,1.9l-9.4,105.4c8-3.8,29.3-8.2,64-13.2h1.9v1.9
			c-43.9,7.2-65.9,12.8-65.9,16.9l20.7-5.6v1.9l35.8-7.5v1.9l1.9-1.9h1.9l1.9,1.9l9.4-1.9h7.5l13.2,1.9v1.9c0,3.8-9.4,6.9-28.2,9.4
			v1.9l1.9-1.9h1.9l13.2,1.9l1.9-1.9v5.6l-62.1,15.1l-39.5,15.1h-5.6l-7.5-9.4h-1.9v-1.9c0-3.2,2.5-5.1,7.5-5.6v-5.6l-5.6-7.5
			l7.5-84.7h1.9v7.5l-1.9,13.2h3.8l-3.8,24.5l1.9,1.9l-1.9,7.5v9.4h1.9l7.5-99.8c2.5,0,3.8-1.9,3.8-5.6l1.9-1.9H1728.5z"/>
		<path class="st3" d="M1921.3,89.2l9.1,6.3c-2.7,11.1-7.5,16.5-14.4,16.1l-49.2,2.2l-0.2,3.8l9.3,0.7l11.4-1.1l1.8,2.1l1.9,0.1
			l13.3-1.1l3.8,0.3l-0.1,1.9l-43.7,4.5l-3.4,24.4l1.9,0.1l51.2-4.1l1.7,2l-0.1,1.9l-3.8-0.3v1.9l13,2.9l-0.1,1.9
			c-2.7,7-20.7,12.7-54,17.1l-18.9,0.7l1.8,1.9l-9.1,23.9h-1.9l1.1-16.9l-1.9-0.1l-3.7,26.1c37.6-5,64.1-7,79.6-6l9.2,2.5l-0.1,3.8
			l-3.8-0.2l1.7,2l-0.3,5.6c-3.6,4.7-11.3,6.7-23,6l-0.1,1.9l15.1,1l-0.3,3.8l-87.6,12.8l-1.9-0.1c-6.1-1.3-9.1-3.3-9.1-5.9v-0.3
			l0.3-5.6l5.2-20.4l-1.8-2l3.8,0.1l-0.7,9.4l1.9,0.2c0.7-6.3,2.2-9.3,4.4-9.1l-1.8-2.1l1.3-18.7l-3.8-0.3l-2.5,9.3l2.1-1.8l1.9,0.1
			l-0.8,11.3l-1.9-0.2l0.3-5.5l-1.9-0.1l-0.2,3.8l-1.9-0.1l0.2-3.8l6-31.8l-1.9-0.1l4.3-9.1l-1.8-2l0.1-1.9l4.1-31.8l1.8,2l1.9,0.1
			l0.2-3.8l-1.2-9.5l3-16.8l0.3-5.6l1.9,0.2l1.8,2l2-1.8l1.9,0.2l1.8,1.9l2-1.8l5.6,0.4L1921.3,89.2z M1827,171.5l-0.9,13.2l1.9,0.1
			l0.9-13.1L1827,171.5z M1889.1,173.9h1.9l-0.2,1.9l-34.1,3.4l-1.8-2.1l0.1-1.8l17.1-0.8l-0.1,1.9L1889.1,173.9z"/>
	</g>
	<g>
		<path class="st4" d="M254.9,115.3c7.4,0,11.1,11.1,11.1,33.3h11.1l16.6-11.1l5.5,5.5l-27.7,310.5c23.5-11.1,86.3-24,188.5-38.8
			h5.5v5.5c-129.4,21.1-194.1,37.7-194.1,49.9l61-16.6v5.5l105.4-22.2v5.5l5.5-5.5h5.5l5.5,5.5l27.7-5.5h22.2l38.8,5.5v5.5
			c0,11.1-27.7,20.3-83.2,27.7l0,0c0,2,2.5,3.1,3.9,1.6h0c1-1,2.5-1.6,3.9-1.6l0,0c2.2,0,4.3,0.2,6.5,0.5l35.4,3.8h1.8
			c2-2,4,0.7,4,3.6v2.4c0,3.8-2.6,7-6.2,7.9l-176.8,42.9L216.1,581h-16.6l-22.2-27.7h-5.5v-5.5c0-9.3,7.4-14.9,22.2-16.6v-16.6
			l-16.6-22.2l22.2-249.5h5.5V265l-5.5,38.8h11.1l-11.1,72.1l5.5,5.5l-5.5,22.2v27.7h5.5l22.2-293.9c7.4,0,11.1-5.5,11.1-16.6
			l5.5-5.5H254.9z"/>
	</g>
	<path class="st4" d="M644.7,316.5c24.6,0,47.6,7.3,69,22l-3.1,3.1v3.1l12.6,18.8h-6.3l3.1,65.9h3.1c0-10.5,2.1-15.7,6.3-15.7v12.6
		c0,11.8-10.5,39-31.4,81.6h3.1c-14.8,20.3-36.7,39.1-65.9,56.5l-15.7,3.1h-3.1c-49.7,0-81.1-19.9-94.1-59.6L509.7,489l3.1-3.1
		l-3.1-22v-6.3c0-17.3,16.7-47.7,50.2-91l28.2-28.2H585C585,328.8,604.9,321.5,644.7,316.5z M629,372.9l-22,18.8
		c-17.3,0-34.1,29.3-50.2,87.9c0,16.7,9.4,31.4,28.2,43.9h3.1c22.9,0,49-24.1,78.4-72.2c10.5-22.9,15.7-39.6,15.7-50.2v-25.1
		c0-5.8-10.5-10-31.4-12.6h-3.1l-3.1,3.1h-3.1l0,0c0-1.4-1.5-2.4-2.8-1.7l-9.7,4.9"/>
	<path class="st0" d="M760,582.5c-5.8-4-11.2-9.2-16.4-15.8c-8.7-5.4-18-16-18-36.7c0-1.6,0.1-3.3,0.2-5l0.5-5.8l21.5-13.8l12.5,8.7
		h1.6c32.4-5.2,70.4-15.8,78.7-37.8c-11.1-5.4-18.9-8.7-24.4-10.6l-0.3,5.7l-27.3-11.1l-0.4,13.8l-18.4-13.6
		c-30.7-22.6-44-39.3-43.1-54.3l0.2-2.7l27.1-48.5l39.2-30l-0.3,5.9l42.4-33.2l7.2,5.5c1.1,0.6,9,4,45.7,4H901l-0.7,11.2
		c12,4.2,20.4,11,25.3,20.4l1.5,2.9l-0.2,3.9l6.2,0.9l-1.5,25.4h-9.4l-0.6,9.4h-11.3c-28.9,0-54.7,8.7-78.3,26.4
		c34.7,13.5,63.1,37.4,84.6,71.3l2.1,3.3l-0.5,8.3l-0.4,1.3c-8.4,29.8-31.6,57.4-69,82.1l-2.1,1.4l-7,1.1
		c-4,8.4-15.4,12.1-21.4,14.1c-10.2,3.3-24.8,6.7-44.6,10.3l-15,2.7L760,582.5z"/>
	<path class="st4" d="M835.5,312.8c5.5,4.2,23.1,6.3,52.8,6.3l-0.2,3.1h-22l-0.2,3.1c26.2,0,42.6,6.3,49.1,18.8l-0.4,6.3H899
		l-0.2,3.1l21.8,3.1l-0.2,3.1h-18.8l-0.2,3.1c6.3,0,9.3,2.1,9,6.3c-37.3,0-70.6,13.6-99.9,40.8l-0.2,3.1
		c40.5,10.8,72.5,34.9,96.2,72.2l-0.2,3.1c-7.6,27.1-29,52.2-64,75.3l-19.2,3.1L823,570h6.3c-0.2,5.7-19.4,11.9-57.6,18.8l0.4-6.3
		h15.7l0.4-3.1c-13.4,0-25.5-7.3-36.4-22c-9.4-4.8-14-14-14-27.5c0-1.2,0.1-2.5,0.2-3.9l9.8-6.3l9,6.3h6.3
		c59.1-9.2,89.5-28.1,91.4-56.5c-24.7-12.6-41.1-18.8-49.1-18.8L805,454l-30.8-12.6l3,3.1l-0.2,6.3c-26.1-19.2-38.8-33.8-38.2-43.9
		l24.5-43.9l16.4-12.6l-0.4,6.3L835.5,312.8z M792.7,397.5L792.7,397.5c-0.1,1.3,1.4,2.2,2.5,1.5l46.9-29.2c1.8-1.1,6.4-3,8.5-3.5
		c5-1.2,20.3-5.8,20.3-5.8c1.5-0.4,2.6-1.7,2.7-3.2l0,0c0.1-2-1.5-3.7-3.5-3.7h-2.6C834.3,365.9,809.4,380.5,792.7,397.5z"/>
	<path class="st0" d="M1073.5,628.7l-12-40.8h-11.2l-6.8-40.8h-2.6l-4.2-25.1h-0.8v-4.7l-2.2-13h0.1l-4.6-3.5
		c-45.7,8.8-50.6,18-50.9,18.7v1.3l-0.3,1.4c-5.3,22.1-11.3,36.9-18.5,45.8v13.6h-15.7v10.4l-15.7-10.5v17L897,567.5l3.1-18.8
		L889.5,538l58.1-140.2l3.6-1.8v-6.3l4.1-20.4l4-4h-0.6l24.3-67.9h28.1c10.6-4.2,20.8-6.3,30.6-6.3h9.7l1.7,7.8
		c1.5,0.6,5.4,1.6,13.7,1.6h9.6l25.1,109.8h24.4v15.7h15.7V441c0,12.3-12.4,18-27.7,21.6l3.2,9.7l-3.5,10.4l2.8,16.9v9.1l-2.7,2.7
		l2.7,32.6v46.4l5.8,28.9h-8.4l1,3.1h-18.7c-3.6,4.5-8.9,6.3-13.7,6.3H1073.5z M1015.5,428.1c5.6-1.1,9.2-3.1,10.6-6l-3.4-12.8
		L1015.5,428.1z"/>
	<path class="st4" d="M1041.7,303c1.4,6.3,9.7,9.4,25.1,9.4l25.1,109.8h22v3.1l-18.8,3.1v3.1c6.3,0,9.4,2.1,9.4,6.3h25.1v3.1
		c0,4.7-10.5,8.9-31.4,12.6l6.3,18.8l-3.1,9.4l3.1,18.8v3.1l-3.1,3.1l3.1,37.7v18.8l-3.1-3.1h-3.1l9.4,47.1h-6.3
		c0-6.3-2.1-9.4-6.3-9.4v3.1l3.1,9.4h-3.1l-3.1-3.1h-3.1c0,6.3-2.1,9.4-6.3,9.4l-15.7-53.3h-3.1V576h-3.1l-6.3-37.7l-3.1-28.2h-3.1
		v-12.6h-3.1l-12.6-9.4c-43.9,7.9-65.9,18.3-65.9,31.4c-5.5,23-11.8,37.7-18.8,43.9v6.3h-9.4l-3.1-3.1h-3.1v3.1l-9.4-6.3l6.3-18.8
		h-3.1c-6.3,0-9.4,8.4-9.4,25.1l-6.3-6.3l3.1-18.8l-9.4-9.4L957,406.5l6.3-3.1v-12.6l3.1-15.7l3.1-3.1c0,0,12.6-18.8,6.3-18.8
		l15.7-43.9h12.6l-3.1,3.1v3.1C1015.4,307.2,1029,303,1041.7,303z M1022.8,375.1L997.7,441h6.3c20.9,0,32.4-6.3,34.5-18.8
		l-12.6-47.1H1022.8z M1047.9,516.3h6.3v18.8h-3.1L1047.9,516.3z"/>
	<path class="st0" d="M1222.7,581.3c-7.6,0-15-1.8-22.5-5.5v2.4h-25.1l-3.1-2.1c-22.1-15.1-35.4-34.6-39.6-57.8l-0.1-0.6l-3.2-41.8
		v-0.5c0-57.1,12-93.2,36.5-110.3l10.8-7.5c3.4-3,7.6-6.5,12.7-10.6c-1.9-5.6,0-11.7,4.7-15.3c4.1-3.2,10.2-6.1,18.5-8.8
		c1.9-3.5,5.2-6.1,9.3-7l28-6.2h4.5c34.7,0,61.3,14.6,79.2,43.3l1.8,2.9v18.6h-3.1v7.8l-13.4-1.6c-7.2-0.8-12.6-1.9-16.5-3.2
		c-2.5-0.8-4.4-1.8-6.1-2.9c-41.3,1.7-71.9,23.8-93.4,67.5l-5.3,18.4l7.4,46.9c22.1-0.4,48.4-18,77.9-52.3l3.6-4.2h18l0.7-0.9
		l0.6,0.9h1.3v1.7l18.8,25.1v13.4c0,2-0.2,4.2-1.2,6.8h7.5v19.5l-2.8,3.3c-17.2,20.4-36.2,34.8-56.8,43.1v9.6l-48.7,7.9H1222.7z"/>
	<path class="st4" d="M1251,321.6h3.1c30.4,0,53.4,12.6,69,37.7v3.1h-6.3l3.1,3.1v3.1c-12.6-1.5-18.8-3.6-18.8-6.3
		c-48.9,0-85.5,25.1-109.8,75.3l-6.3,22l9.4,59.6h9.4c26.1,0,55.4-18.8,87.9-56.5h3.1v3.1c-22.3,32.1-47.4,50.9-75.3,56.5v3.1h3.1
		c21.9,0,49.1-18.8,81.6-56.5l9.4,12.6v9.4c0,6.8-15.7,22.5-47.1,47.1l-3.1,3.1h-3.1v6.3c35.6-17.3,53.3-29.9,53.3-37.7h6.3v3.1
		c-26.3,31.4-56.7,47.1-91,47.1v3.1h15.7l12.6-3.1h3.1v3.1l-37.7,6.1c-15.3,0-31.4-10.6-48.3-31.9c-0.6-0.8-1.9-0.3-1.9,0.7l0,0
		l15.7,25.1v3h-9.4c-19.4-13.3-30.9-30-34.5-50l-3.1-40.8c0-52.4,10.5-85.9,31.4-100.4v3.1c0,0,10.1-13.2,59.9-48.2
		c0.5-0.3,0.1-1.1-0.5-0.9l-5.8,1.9c-0.2,0.1-0.3,0.1-0.5,0.1h-1.4c-0.8,0-1.4-0.6-1.4-1.4v-0.1c0-0.9,0.7-1.8,1.6-2L1251,321.6z
		 M1172.5,375 M1216.5,334.2L1216.5,334.2c1.7,0,3.1,1.4,3.1,3.1l0,0l-16.5,7.1c-2,0.9-3.6-1.8-1.8-3.1
		C1204.3,338.9,1209.4,336.5,1216.5,334.2z"/>
	<path class="st0" d="M1510.6,595.1l-0.9,3.6h-43.3v-6.3h-9l-12.7-35l-32.9-32.9h18.2c-8.2-13-18.3-28.6-30.6-47.3l-0.9-1.3
		l-0.4-1.1c-3.2,39-9.2,64.2-18.4,78.2v12.5l-55.4-5.5v-21.1l2-14.1c-4.5-4.2-8.3-11.9-8.3-25.8v-1l0.2-1
		c1.8-11.2,3.7-19.5,5.6-25.3c0.2-0.7,0.5-1.6,1-2.7l-0.1-0.1l0.6-5.7c7.3-66.8,13.4-91.8,17.9-102.9l-3-8.9l9-24.1l-2-2v-20.1h23.4
		c4.2-1.9,9.7-3.1,16.8-3.1h10.7l1,9.4h13.3l6,24.2l-4.3,23.1l13.3-9.6h2.7l18.8-15.7h2.5l12.6-12.6h0.9c6.1-7.2,18.6-14.5,40-24.1
		l7.5-3.4l9.4,9.4c2.6-0.6,4.8-0.8,6.8-0.8h12.5l4.7,18.8h7.1l9.2,27.7l-9.7,4.5c-9.8,4.6-35.1,21.3-100,74.1
		c14.4,29.3,38,68,70.3,115.4l2.1,3.1v10.8l-6.7,46.6L1510.6,595.1z"/>
	<path class="st4" d="M1531.7,335.6l3.1-3.1h9.4l3.1,9.4c-15.8,7.4-52.4,34.6-109.8,81.6c14.1,30.9,39.3,72.7,75.3,125.5v6.3
		l-3.1,22l-3.1-3.1h-3.1l-3.1,12.6h-12.6v-6.3h-3.1v6.3h-6.3c0-7.4-23-46.1-69-116.1l-6.3-18.8l-15.7,3.1
		c-2.7,50.3-9.3,81.7-19.7,94.1v3.1l-31.4-3.1v-9.4l3.1-22c-6.3,0-9.4-6.3-9.4-18.8c3.4-20.9,6.9-31.4,10.3-31.4l-3.1-3.1
		c6.3-57.6,12.6-92.1,18.8-103.5l-3.1-9.4l9.4-25.1v-3.1l-3.1-3.1v-3.1h6.3v22h3.1l3.1-9.4l-3.1-3.1v-3.1c2.1-6.3,8.4-9.4,18.8-9.4
		l3.1,28.2c4.2,0,7.3-6.3,9.4-18.8h3.1l3.1,12.6l-9.4,50.2l34.5-25.1h3.1l-37.7,34.5v3.1l72.2-53.3l3.1,3.1
		c28.2-23,47-34.5,56.5-34.5h3.1l3.1,12.6 M1453.3,345.1h3.1l-18.8,15.7h-3.1L1453.3,345.1z M1440.7,536.5h3.1l9.4,9.4h-3.1
		L1440.7,536.5z M1453.3,545.9c5.3,0,10.5,10.5,15.7,31.4v3.1h-3.1L1453.3,545.9z M1468.9,332.5h3.1l-12.6,12.6h-3.1L1468.9,332.5z
		 M1509.7,307.4l3.1,3.1v3.1l-3.1,3.1l-3.1-3.1h-3.1l-28.2,18.8h-3.1C1472.1,327,1484.6,318.6,1509.7,307.4z"/>
	<path class="st0" d="M1544.3,582.7l-0.9-0.2c-16.3-3.6-24.6-10.8-24.6-21.5v-0.9l0.6-10.9l7.4-28.9l-2.2-2.4l1-11.3l0.4-6.9
		l7.6-40.3l-7.3-0.4l11.4-24l-1-1.1l0.5-8.5l10.3-79.5l2,2.2l4-22.7l1.3-21.4l16.3,1.9l0.4-0.3l8.9,1l0.3-0.3l13.9,1.1l113.5-2.1
		l25,17.4l-1.9,8c-7.1,29.8-22.6,36-34.4,36c-0.4,0-0.9,0-1.4,0l-1.3,0.1l-0.8,13.6l-73.7,7.7l-2.4,16.9l79.7-6.4l9.8,11.7l-0.1,1.6
		l15.5,3.5l-0.9,15.2l-0.7,1.8c-3.8,9.6-14.4,16.9-33.5,23c-6.2,2-13.3,3.8-21.4,5.6l-1.4,11.9l-67.9,6.8l-8,21
		c40.2-4.9,72-7.3,94.5-7.3c5.7,0,11,0.2,15.6,0.5l1.2,0.1l25.6,7.1l-0.8,28l-3.7-0.2l-0.3,4.3l-2.2,2.9c-2.9,3.8-6.6,6.8-11.1,9.2
		l-1.3,15.1l-156.6,23L1544.3,582.7z"/>
	<path class="st4" d="M1704.5,317.4l15.1,10.5c-4.4,18.6-12.4,27.5-24,26.8l-81.9,3.7l-0.4,6.3l15.5,1.1l19-1.8l3,3.5l3.1,0.2
		l22.1-1.8l6.3,0.6l-0.2,3.1l-72.9,7.6l-5.7,40.6l3.1,0.2l85.3-6.8l2.8,3.3l-0.2,3.1l-6.3-0.6v3.1l21.6,4.8l-0.2,3.1
		c-4.6,11.7-34.6,21.2-90.1,28.4l-31.6,1.1l3,3.1l-15.1,39.9h-3.1l-7.4,15.1c62.6-8.4,106.9-11.7,132.7-10l15.3,4.2l-0.2,6.3
		l-6.3-0.4l2.8,3.3l-0.6,9.4c-6,7.9-18.8,11.2-38.4,10l-0.2,3.1l25.1,1.7l-0.6,6.3l-146,21.4l-3.1-0.2c-10.1-2.2-15.1-5.5-15.1-9.8
		v-0.6l0.6-9.4l8.7-34l-3-3.3l0.6-6.3l0.4-6.3l10-53l-3.1-0.2l7.2-15.1l-3-3.3l0.2-3.1l6.8-53l3,3.3l3.1,0.2l0.4-6.3l-2-15.9l5-28.1
		l0.6-9.4l3.1,0.4l3,3.3l3.3-3l3.1,0.4l3,3.1l3.3-3l9.4,0.7L1704.5,317.4z M1650.9,458.6h3.1l-0.4,3.1l-56.8,5.7l-3-3.5l0.2-3
		l28.4-1.3l-0.2,3.1L1650.9,458.6z"/>
	<path class="st0" d="M1896.8,625.8l-4.2-6.3h-6.2l-3.3-2.7c-43-35.1-73.6-71.3-91-107.5l-4.7-9.5c-0.3,2.9-0.5,6.4-0.7,10.3
		c1.9,31-1.5,40.2-5.6,45.6l-0.9,1.1c0,0-1.1,0.9-1.1,0.9l1.3,1.6v22.5h-21.4c-2.1,0-6.5-0.4-10.5-3.5c-2.1,0.7-4.3,1-6.5,1
		c-2.3,0-4.8-0.3-7.3-1l-4-1.1l-19.3-25.7l4.2-32.7v-13.1l21.1-98.6h4v-17.7l1.3-5.3h-13.9v-9.4h-9.4v-12c0-1.8,0.3-5.3,2.4-8.8
		c-1.7-3.2-2.4-6.7-2.4-10v-7.4l65.6-32.8h41.6l1.1,0.2c24.3,4.6,42.3,12.1,55,23c13.7,11.8,20.7,27,20.7,45.3v10.4l3.1-2.8v35.8
		l-1.1,2.3c-11.9,26.5-27.6,44.4-46.8,53.1l-0.6,0.3l-9.2,3.1c3.9,3.8,8.7,9.3,15.2,17.4c10.7,13.3,25.7,33.2,44.6,59.2
		c9.6,5,18.5,14.3,27.4,28.2l1.8,2.9v34.3h-11.8l-15.7,9.4H1896.8z M1807,408.1c19.4-10.9,33.9-22.2,43.4-33.8v-0.2
		c-1.8-1.5-7.7-5.7-25.5-11.3l-8.7,2.9L1807,408.1z"/>
	<path class="st4" d="M1787.1,315.7h37.7c43.9,8.2,65.9,27.1,65.9,56.5V391l-31.4,43.9h3.1l31.4-28.2v6.3
		c-10.7,23.9-24.3,39.6-40.8,47.1l-18.8,6.3v12.6c4.6,0,26.5,27.2,65.9,81.6c8.4,3.4,16.7,11.8,25.1,25.1v3.1l-15.7-12.6v3.1
		c10.5,11.1,15.7,19.4,15.7,25.1h-3.1l-15.7,9.4h-3.1l-6.3-9.4l-3.1,3.1h-3.1c-41.8-34.2-71.1-68.7-87.9-103.5l-15.7-31.4
		c-7.4,0-11.6,12.6-12.6,37.7c1.4,20.9,0.3,33.7-3.1,38.2c-6.2,5-7.2,10.1-3.1,15.1v6.3h-9.4c-4.2,0-6.3-4.2-6.3-12.6h-3.1
		c0,8.4-3.9,11.5-11.8,9.4l-13.8-18.5l3.7-28.6v-12.6l18.8-87.9h3.1v12.6h3.1l6.3-59.6h-18.8v-3.1c0-4.2,6.3-7.3,18.8-9.4v-3.1h-6.3
		l-18.8,6.3h-3.1c0-4.2,4.2-6.3,12.6-6.3v-3.1c-8.4,0-12.6-3.1-12.6-9.4L1787.1,315.7z M1755.8,378.5h3.1v9.4l-3.1,12.6h-3.1V391
		L1755.8,378.5z M1790.3,428.7h3.1c32.9-15.7,55.9-32.5,69-50.2v-6.3c0-7.1-12.6-14.5-37.7-22l-18.8,6.3L1790.3,428.7z"/>
</g>
<g id="Fonts" class="st5">
	<path class="st6" d="M479.8,646.7H26.9c-5.5,0-10-4.5-10-10l40-596.9c0-5.5,4.5-10,10-10h452.9c5.5,0,10,4.5,10,10l-40,596.9
		C489.8,642.2,485.3,646.7,479.8,646.7z"/>
	<rect x="466.1" y="302.6" class="st7" width="1742.2" height="460.4"/>
	<text transform="matrix(1 0 0 1 466.111 549.3201)" class="st8 st9 st10">osacker</text>
	<rect x="121.6" y="113" class="st7" width="1742.2" height="460.4"/>
	<text transform="matrix(1 0 0 1 121.5554 549.0815)" class="st11 st9 st12">L</text>
	<rect x="1142.8" y="121" class="st7" width="874.4" height="178.2"/>
	<text transform="matrix(1 0 0 1 1142.7773 215.0055)" class="st13 st9 st14">Fahrschule</text>
</g>
</svg>
