<?xml version="1.0" encoding="utf-8"?>
<!-- Generator: Adobe Illustrator 24.1.1, SVG Export Plug-In . SVG Version: 6.00 Build 0)  -->
<svg version="1.1" id="Ebene_1" xmlns="http://www.w3.org/2000/svg" xmlns:xlink="http://www.w3.org/1999/xlink" x="0px" y="0px"
	 viewBox="0 0 119 40" style="enable-background:new 0 0 119 40;" xml:space="preserve">
<g>
	<path d="M6.3,15.9l0,0.2H6l0,0.1h0.1l2.1-0.1h0.4l0,0.1l-0.2,0.2l0.1,0.1l0,0.2c0,0.4-0.1,0.6-0.3,0.6l0.1,0.3l-0.1,0.3L8,18H7.9
		c-1,0.1-1.5,0.1-1.5,0.2l-0.1-0.1c-1.2,0.2-1.9,0.6-1.9,1.1l0,0.9l2.6-0.2L7,19.9L7,20H6.5l0,0.1c0.4,0,0.5,0.1,0.5,0.2v0.1
		C7,20.8,6.9,21,6.8,21H6.1l0,0.1h0.8l0,0.2c0,0.1-0.9,0.4-2.7,0.8L4,23.2l0.1,0.1v0.1L4,23.6l0,0.1L4.1,24H4l0.1,0.3
		c0,0.3-0.2,0.9-0.8,1.7l-0.9-0.1l0.1-1.1c-0.3,0-0.4-0.1-0.4-0.4v0c0.1-0.2,0.2-1.3,0.4-3.4h0.2l-0.1-0.1L2.8,20l0.1,0.1H3L3.2,19
		l0-0.4c-0.4,0-0.5-0.1-0.5-0.2l0.2-0.3c-0.3,0-0.4-0.1-0.4-0.3c0-0.6,0.1-1,0.4-1c0.4,0,0.5-0.2,0.6-0.5h0.1l0.1,0.1l0.2-0.2h0.3
		l0.3,0.3L6.3,15.9z M2.8,21.9l0,1.2h0.1l0-1.2H2.8z M2.9,25l0,0.4H3L3,25H2.9z M5.6,17.6v0.1h0.1l2.2-0.2l0-0.1l-0.3-0.1l-0.1,0.1
		H7.3l-0.1-0.1L5.6,17.6z M6.6,16.5l0,0.1h0.3l1.2-0.1v-0.1H7.5L6.6,16.5z"/>
	<path d="M12.5,15.8c0,0.2,0.3,0.3,0.9,0.3l0.9,3.8H15V20l-0.6,0.1v0.1c0.2,0,0.3,0.1,0.3,0.2h0.9v0.1c0,0.2-0.4,0.3-1.1,0.4
		l0.2,0.6l-0.1,0.3l0.1,0.6l-0.1,0.1h0.1l-0.1,0.1l0.1,1.3v0.6l-0.1-0.1h-0.1l0.3,1.6h-0.2c0-0.2-0.1-0.3-0.2-0.3V26l0.1,0.3h-0.1
		l-0.1-0.1h-0.1c0,0.2-0.1,0.3-0.2,0.3l-0.5-1.8h-0.1v0.4h-0.1L13,23.8l0.3,0.2v-0.1c-0.1-0.6-0.2-1-0.3-1l0.1-0.1v-0.3h-0.2v0.3
		h-0.1v-0.4l0.1-0.1h-0.1l-0.1,0.1V22h0.1l0.1,0.1H13L12.9,22v-0.6l-2.4,0.5v0.2l0.8-0.2l0.4,0.1l0.5-0.1v0.2
		c-1.5,0.3-2.3,0.6-2.3,1.1c-0.2,0.8-0.4,1.3-0.6,1.5v0.2H9l-0.1-0.1H8.8v0.1l-0.3-0.2L8.7,24H8.6c-0.2,0-0.3,0.3-0.3,0.9L8,24.7
		L8.1,24l-0.3-0.3l1.8-4.4h0.1c0,0.2,0.1,0.3,0.2,0.3l0.1-0.5L10,19.2H9.9v-0.4l0.1-0.5l0.1,0.1h0.1l-0.1-0.1v-0.1l0.2-0.4h0.1
		l0.1,0.1h0.1v-0.1c0-0.1-0.1-0.2-0.3-0.2l0.5-1.5h0.4l-0.1,0.1v0.1C11.6,15.9,12.1,15.8,12.5,15.8z M9.4,20.4l-0.1,0.4h0.1l0.2-0.4
		H9.4z M9.7,19.8L9.6,20v0.2h0.1l0.1-0.3H9.7z M10.4,20.3l-0.1,0.4h0.1l0.1-0.1v-0.3H10.4z M10.9,18.9l-0.2,0.8l-0.1-0.1h-0.1
		l0.1,0.4h0.1l0.3-1v-0.1H10.9z M11.9,18.2L11,20.5h0.2c0.7,0,1.1-0.2,1.2-0.6L12,18.2H11.9z M11.3,20.7v0.1h0.2
		c0.6-0.1,1-0.2,1-0.3h-0.1L11.3,20.7z M12.8,23.1H13v0.6h-0.1L12.8,23.1z M13.2,24.2v0.2l0.3-0.1V24L13.2,24.2z M14.3,23.8V24
		l0.1,0.4h0.1v-0.2l-0.1-0.4H14.3z"/>
	<path d="M17.3,16.2h0.1v0.3h0.1v-0.2h0.4c0.1,0,0.2,0.2,0.2,0.6l0.3,0.1c0-0.2,0.1-0.3,0.2-0.3l0.1,0.1v0.1l-0.5,2.9l1.6-0.1h1.1
		l0.1-0.5l-0.1-0.1h0.2L21,18.3v-0.1h0.2l-0.1-0.1v-0.2h0.2v-0.2h-0.2v-0.1h0.2l-0.1-0.1v-0.8l0.1,0.1h0.1v-0.4l-0.1-0.1v-0.1h0.3
		l-0.5,3.7c0.1,0,0.4-1.2,0.6-3.6l0.4-0.1c0.1,0.6,0.2,0.9,0.3,0.9h0.1c0-0.2,0.1-0.3,0.2-0.3H23c-0.4,2.5-0.9,5.4-1.6,8.7h-0.1
		l-0.1-0.1l0.1-0.1v-0.9h-0.1l-0.3,1.1h-0.3c-0.1,0-0.2-0.2-0.2-0.6h-0.1v0.4h-0.1c-0.1,0-0.2-0.1-0.2-0.3c0-0.5,0.2-1.7,0.6-3.7
		h-0.1L19,21.4l-1-0.1c-0.2,1.7-0.4,2.9-0.6,3.4h-0.3c-0.1,0-0.2-0.3-0.2-0.9h-0.1l-0.1,0.8l-0.2-0.2V24l0.1-0.1v-0.1l-0.1-0.1h-0.1
		l-0.1,0.1h-0.1L16,23.4c0.3-2.4,0.6-4.2,1-5.3h0.1L17,18v-0.3l0.3-1.2h-0.1L17.3,16.2z M16.1,23.9h0.1v0.5h-0.1V23.9z M16.7,20.3
		v0.4h0.1v-0.4H16.7z M17,19.2l-0.1,0.5v0.1H17l0.1-0.4v-0.2H17z M17.1,18.7v0.4h0.1v-0.4H17.1z M17.3,17.5l-0.1,0.9v0.2h0.1
		l0.1-0.9v-0.2H17.3z M17.4,16.6v0.8h0.1v-0.8H17.4z M20.6,22.2v0.4h0.1v-0.4H20.6z M20.8,21.4L20.7,22v0.1h0.1l0.1-0.5v-0.2H20.8z
		 M21.4,23.4l-0.1,0.5v0.3h0.1l0.1-0.8v-0.1H21.4z"/>
	<path d="M25.3,16.2h1.3c1.5,0.3,2.3,0.9,2.3,1.9v0.6l-1.1,1.5h0.1l1.1-1v0.2c-0.4,0.8-0.8,1.4-1.4,1.6l-0.6,0.2v0.4
		c0.2,0,0.9,0.9,2.3,2.8c0.3,0.1,0.6,0.4,0.9,0.9v0.1l-0.5-0.4v0.1c0.4,0.4,0.5,0.7,0.5,0.9h-0.1l-0.5,0.3h-0.1L29,26.1l-0.1,0.1
		h-0.1c-1.4-1.2-2.4-2.4-3-3.6l-0.5-1.1c-0.3,0-0.4,0.4-0.4,1.3c0,0.7,0,1.2-0.1,1.3c-0.2,0.2-0.2,0.3-0.1,0.5v0.2h-0.3
		c-0.1,0-0.2-0.1-0.2-0.4H24c0,0.3-0.1,0.4-0.4,0.3l-0.5-0.6l0.1-1v-0.4l0.6-3H24v0.4h0.1l0.5-2.3c-0.1,0-0.2,0.1-0.2,0.4h-0.1v-0.2
		h-0.6V18c0-0.1,0.2-0.3,0.6-0.3v-0.1h-0.2l-0.6,0.2h-0.1c0-0.1,0.1-0.2,0.4-0.2v-0.1c-0.3,0-0.4-0.1-0.4-0.3L25.3,16.2z M23.8,20.7
		v0.4h0.1v-0.4H23.8z M24,19.3h0.1v0.4H24V19.3z M24.2,18.3h0.1v0.3l-0.1,0.4h-0.1v-0.3L24.2,18.3z M25.4,20.1h0.1
		c1.1-0.5,1.9-1.1,2.4-1.7v-0.2c0-0.2-0.4-0.5-1.3-0.8l-0.6,0.2L25.4,20.1z M27,23.9v0.1l0.4,0.4C27.3,24.2,27.1,24,27,23.9z
		 M27.9,18.8l-0.5,0.8h0.1l0.5-0.6v-0.1H27.9z M27.5,17.4c0.1,0.3,0.3,0.5,0.4,0.5v-0.2L27.5,17.4z M27.5,24.7v0.1l0.4,0.3V25
		L27.5,24.7z M28.2,18l-0.1,0.5h0.1l0.1-0.1V18H28.2z M28.9,19h0.2L29,19.3h-0.1V19z"/>
	<path d="M35.4,16.2l0.5,0.4c-0.2,0.6-0.4,0.9-0.8,0.9l-2.8,0.1l0,0.2l0.5,0l0.7-0.1l0.1,0.1l0.1,0l0.8-0.1l0.2,0l0,0.1l-2.5,0.3
		l-0.2,1.4l0.1,0l2.9-0.2l0.1,0.1l0,0.1l-0.2,0v0.1l0.7,0.2l0,0.1c-0.2,0.4-1.2,0.7-3.1,1l-1.1,0l0.1,0.1L31,22.5h-0.1l0.1-1l-0.1,0
		l-0.2,1.5c2.1-0.3,3.7-0.4,4.6-0.3l0.5,0.1l0,0.2l-0.2,0l0.1,0.1l0,0.3c-0.2,0.3-0.6,0.4-1.3,0.3l0,0.1l0.9,0.1l0,0.2L30,25l-0.1,0
		c-0.3-0.1-0.5-0.2-0.5-0.3v0l0-0.3l0.3-1.2L29.6,23l0.2,0l0,0.5l0.1,0c0-0.4,0.1-0.5,0.3-0.5l-0.1-0.1l0.1-1.1l-0.2,0l-0.1,0.5
		l0.1-0.1l0.1,0l0,0.6l-0.1,0l0-0.3l-0.1,0l0,0.2l-0.1,0l0-0.2l0.3-1.8l-0.1,0l0.2-0.5L30,20.1l0-0.1l0.2-1.8l0.1,0.1l0.1,0l0-0.2
		l-0.1-0.5l0.2-1l0-0.3l0.1,0l0.1,0.1l0.1-0.1l0.1,0l0.1,0.1l0.1-0.1l0.3,0L35.4,16.2z M30,21l-0.1,0.8l0.1,0l0.1-0.7L30,21z
		 M33.5,21.1h0.1l0,0.1l-2,0.2l-0.1-0.1l0-0.1l1,0l0,0.1L33.5,21.1z"/>
	<path d="M38.1,16.3l0.8,0.6c0-0.2,0.1-0.3,0.2-0.3h0.1l1.5,3.9v0.2h-0.1l-0.2-0.6h-0.1v0.2l0.8,1.8h0.1c0.3-1.9,0.7-3.8,1.2-5.8
		l0.3,0.2l0.3-0.1l0.6,0.3v0.1c-0.2,0-0.3,0.1-0.3,0.4h0.1l0.1,0.1h0.1l0.1-0.5H44v0.1L43.9,17l0.1,0.1v0.1c-0.5,1.7-1,4-1.5,7.1
		h-0.2l0.2-1.7c-0.1,0-0.4,0.7-0.6,2c-0.3,0.2-0.5,0.3-0.8,0.3v0.2H41c0-0.1-0.1-0.2-0.4-0.2v-0.8c0-0.3-0.7-2.1-2.2-5.4h-0.1
		c-0.3,1.3-0.5,3-0.8,5.2l-0.1-0.1c-0.4,0.1-0.6,0.3-0.6,0.5h-0.2c-0.1-0.3-0.2-0.7-0.2-1.4h-0.1v1h-0.2L36,23.5
		c0-2,0.4-4.3,1.3-7.1L38.1,16.3z M36.6,19v0.1l0.1,0.1l-0.1,0.1v0.2h0.1l0.1-0.4L36.7,19H36.6z M40.7,20.7c0.2,0,0.3,0.3,0.4,0.9
		v0.1H41L40.7,20.7z"/>
	<path d="M45.4,19L45.4,19l0.4-0.2L46,19l0.6,0l0.1,0.1l0-0.1l0.1,0.1l1.1,0l0.6,0.1l-0.1,0.1l0,0.1l1.4-0.2l0,0.2
		c-0.2,0-0.3,0-0.3,0.2l0.1,0l0.3-0.1l0,0.1l-0.1,0.1l0,0.1c0.2,0,0.2,0.1,0.2,0.2c0,0,0,0,0,0.1l-1.6,0.3l0,0.1l0.4,0l0,0.1
		l-1.1,0.1l0.2-0.3l-0.1,0c-0.6,0-0.9,0.1-1,0.3l0,0.1l-0.4-0.1L46,20.8l0,0.1l0.1,0.1l-0.4-0.1l0-0.1l0.1-0.1l0-0.1l-0.1,0.1
		l-0.3,0l0-0.1l-0.7-0.2l0-0.2h0.6l0-0.2c-0.2,0-0.2-0.2-0.2-0.4l-0.7-0.2l0-0.1C44.5,19.1,44.8,19,45.4,19z M47.6,19.5l0.2,0
		l0.4-0.1l0-0.1l-0.2,0l-0.4,0.1L47.6,19.5z M47.7,20.6l0.2,0l0-0.3l-0.2,0L47.7,20.6z"/>
	<path d="M52,16.2c0.1,0,0.2,0.2,0.2,0.6h0.2l0.3-0.2l0.1,0.1l-0.5,6c0.5-0.2,1.7-0.5,3.7-0.8h0.1v0.1c-2.5,0.4-3.8,0.7-3.8,1
		l1.2-0.3v0.1l2-0.4v0.1l0.1-0.1h0.1l0.1,0.1l0.5-0.1h0.4l0.8,0.1v0.1c0,0.2-0.5,0.4-1.6,0.5v0.1l0.1-0.1h0.1l0.8,0.1l0.1-0.1v0.3
		l-3.6,0.9l-2.3,0.9H51l-0.4-0.5h-0.1v-0.1c0-0.2,0.1-0.3,0.4-0.3v-0.3l-0.3-0.4l0.4-4.8h0.1v0.4L51,19.8h0.2L51,21.2l0.1,0.1
		L51,21.8v0.5h0.1l0.4-5.7c0.1,0,0.2-0.1,0.2-0.3l0.1-0.1H52z"/>
	<path d="M63.1,16.2l0.5,0.4c-0.2,0.6-0.4,0.9-0.8,0.9L60,17.7l0,0.2l0.5,0l0.7-0.1l0.1,0.1l0.1,0l0.8-0.1l0.2,0l0,0.1l-2.5,0.3
		l-0.2,1.4l0.1,0l2.9-0.2l0.1,0.1l0,0.1l-0.2,0v0.1l0.7,0.2l0,0.1c-0.2,0.4-1.2,0.7-3.1,1l-1.1,0l0.1,0.1l-0.5,1.4h-0.1l0.1-1
		l-0.1,0l-0.2,1.5c2.2-0.3,3.7-0.4,4.6-0.3l0.5,0.1l0,0.2l-0.2,0l0.1,0.1l0,0.3c-0.2,0.3-0.6,0.4-1.3,0.3l0,0.1l0.9,0.1l0,0.2
		l-5,0.7l-0.1,0c-0.3-0.1-0.5-0.2-0.5-0.3v0l0-0.3l0.3-1.2L57.3,23l0.2,0l0,0.5l0.1,0c0-0.4,0.1-0.5,0.3-0.5l-0.1-0.1l0.1-1.1
		l-0.2,0l-0.1,0.5l0.1-0.1l0.1,0l0,0.6l-0.1,0l0-0.3l-0.1,0l0,0.2l-0.1,0l0-0.2l0.3-1.8l-0.1,0l0.2-0.5l-0.1-0.1l0-0.1l0.2-1.8
		l0.1,0.1l0.1,0l0-0.2l-0.1-0.5l0.2-1l0-0.3l0.1,0l0.1,0.1l0.1-0.1l0.1,0l0.1,0.1l0.1-0.1l0.3,0L63.1,16.2z M57.7,21l-0.1,0.8l0.1,0
		l0.1-0.7L57.7,21z M61.2,21.1h0.1l0,0.1l-2,0.2l-0.1-0.1l0-0.1l1,0l0,0.1L61.2,21.1z"/>
	<path d="M65.9,16.2h1.3c1.5,0.3,2.3,0.9,2.3,1.9v0.6l-1.1,1.5h0.1l1.1-1v0.2c-0.4,0.8-0.8,1.4-1.4,1.6l-0.6,0.2v0.4
		c0.2,0,0.9,0.9,2.3,2.8c0.3,0.1,0.6,0.4,0.9,0.9v0.1l-0.5-0.4v0.1c0.4,0.4,0.5,0.7,0.5,0.9h-0.1L70,26.4h-0.1l-0.2-0.3l-0.1,0.1
		h-0.1c-1.4-1.2-2.4-2.4-3-3.6l-0.5-1.1c-0.3,0-0.4,0.4-0.4,1.3c0,0.7,0,1.2-0.1,1.3c-0.2,0.2-0.2,0.3-0.1,0.5v0.2h-0.3
		c-0.1,0-0.2-0.1-0.2-0.4h-0.1c0,0.3-0.1,0.4-0.4,0.3l-0.5-0.6l0.1-1v-0.4l0.6-3h0.1v0.4h0.1l0.5-2.3c-0.1,0-0.2,0.1-0.2,0.4h-0.1
		v-0.2h-0.6V18c0-0.1,0.2-0.3,0.6-0.3v-0.1h-0.2l-0.6,0.2H64c0-0.1,0.1-0.2,0.4-0.2v-0.1c-0.3,0-0.4-0.1-0.4-0.3L65.9,16.2z
		 M64.4,20.7v0.4h0.1v-0.4H64.4z M64.6,19.3h0.1v0.4h-0.1V19.3z M64.8,18.3h0.1v0.3l-0.1,0.4h-0.1v-0.3L64.8,18.3z M66,20.1h0.1
		c1.1-0.5,1.9-1.1,2.4-1.7v-0.2c0-0.2-0.4-0.5-1.3-0.8l-0.6,0.2L66,20.1z M67.6,23.9v0.1l0.4,0.4C67.9,24.2,67.8,24,67.6,23.9z
		 M68.5,18.8L68,19.5h0.1l0.5-0.6v-0.1H68.5z M68.2,17.4c0.1,0.3,0.3,0.5,0.4,0.5v-0.2L68.2,17.4z M68.2,24.7v0.1l0.4,0.3V25
		L68.2,24.7z M68.8,18l-0.1,0.5h0.1l0.1-0.1V18H68.8z M69.6,19h0.2l-0.1,0.3h-0.1V19z"/>
	<path d="M72.3,16.3l0.8,0.6c0-0.2,0.1-0.3,0.2-0.3h0.1l1.5,3.9v0.2h-0.1l-0.2-0.6h-0.1v0.2l0.8,1.8h0.1c0.3-1.9,0.7-3.8,1.2-5.8
		l0.3,0.2l0.3-0.1l0.6,0.3v0.1c-0.2,0-0.3,0.1-0.3,0.4h0.1l0.1,0.1h0.1l0.1-0.5h0.2v0.1L78,17l0.1,0.1v0.1c-0.5,1.7-1,4-1.5,7.1
		h-0.2l0.2-1.7c-0.1,0-0.4,0.7-0.6,2c-0.3,0.2-0.5,0.3-0.8,0.3v0.2h-0.1c0-0.1-0.1-0.2-0.4-0.2v-0.8c0-0.3-0.7-2.1-2.2-5.4h-0.1
		c-0.3,1.3-0.5,3-0.8,5.2l-0.1-0.1c-0.4,0.1-0.6,0.3-0.6,0.5h-0.2c-0.1-0.3-0.2-0.7-0.2-1.4h-0.1v1h-0.2l-0.1-0.5
		c0-2,0.4-4.3,1.3-7.1L72.3,16.3z M70.7,19v0.1l0.1,0.1l-0.1,0.1v0.2h0.1l0.1-0.4L70.9,19H70.7z M74.8,20.7c0.2,0,0.3,0.3,0.4,0.9
		v0.1h-0.1L74.8,20.7z"/>
	<path d="M84.1,16.2l0.5,0.4c-0.2,0.6-0.4,0.9-0.8,0.9L81,17.7l0,0.2l0.5,0l0.7-0.1l0.1,0.1l0.1,0l0.8-0.1l0.2,0l0,0.1l-2.5,0.3
		l-0.2,1.4l0.1,0l2.9-0.2l0.1,0.1l0,0.1l-0.2,0v0.1l0.7,0.2l0,0.1c-0.2,0.4-1.2,0.7-3.1,1l-1.1,0l0.1,0.1l-0.5,1.4h-0.1l0.1-1
		l-0.1,0l-0.2,1.5c2.2-0.3,3.7-0.4,4.6-0.3l0.5,0.1l0,0.2l-0.2,0l0.1,0.1l0,0.3c-0.2,0.3-0.6,0.4-1.3,0.3l0,0.1l0.9,0.1l0,0.2
		l-5,0.7l-0.1,0c-0.3-0.1-0.5-0.2-0.5-0.3v0l0-0.3l0.3-1.2L78.4,23l0.2,0l0,0.5l0.1,0c0-0.4,0.1-0.5,0.3-0.5l-0.1-0.1l0.1-1.1
		l-0.2,0l-0.1,0.5l0.1-0.1l0.1,0l0,0.6l-0.1,0l0-0.3l-0.1,0l0,0.2l-0.1,0l0-0.2l0.3-1.8l-0.1,0l0.2-0.5l-0.1-0.1l0-0.1l0.2-1.8
		l0.1,0.1l0.1,0l0-0.2l-0.1-0.5l0.2-1l0-0.3l0.1,0l0.1,0.1l0.1-0.1l0.1,0l0.1,0.1l0.1-0.1l0.3,0L84.1,16.2z M78.8,21l-0.1,0.8l0.1,0
		l0.1-0.7L78.8,21z M82.3,21.1h0.1l0,0.1l-2,0.2l-0.1-0.1l0-0.1l1,0l0,0.1L82.3,21.1z"/>
	<path d="M86.9,16.3l0.8,0.6c0-0.2,0.1-0.3,0.2-0.3H88l1.5,3.9v0.2h-0.1l-0.2-0.6H89v0.2l0.8,1.8h0.1c0.3-1.9,0.7-3.8,1.2-5.8
		l0.3,0.2l0.3-0.1l0.6,0.3v0.1c-0.2,0-0.3,0.1-0.3,0.4h0.1l0.1,0.1h0.1l0.1-0.5h0.2v0.1L92.7,17l0.1,0.1v0.1c-0.5,1.7-1,4-1.5,7.1
		h-0.2l0.2-1.7c-0.1,0-0.4,0.7-0.6,2c-0.3,0.2-0.5,0.3-0.8,0.3v0.2h-0.1c0-0.1-0.1-0.2-0.4-0.2v-0.8c0-0.3-0.7-2.1-2.2-5.4h-0.1
		c-0.3,1.3-0.5,3-0.8,5.2l-0.1-0.1c-0.4,0.1-0.6,0.3-0.6,0.5h-0.2c-0.1-0.3-0.2-0.7-0.2-1.4h-0.1v1h-0.2l-0.1-0.5
		c0-2,0.4-4.3,1.3-7.1L86.9,16.3z M85.4,19v0.1l0.1,0.1l-0.1,0.1v0.2h0.1l0.1-0.4L85.5,19H85.4z M89.5,20.7c0.2,0,0.3,0.3,0.4,0.9
		v0.1h-0.1L89.5,20.7z"/>
	<path d="M95.3,22.4l0.4,0.4l0,0.1l0.2,0.2l0,0.1h-0.2l0,0.1h0.2l0,0.1c-0.5,0.1-0.7,0.3-0.7,0.4h0.2c0,0.6-0.6,0.9-1.7,0.9
		l-0.4-0.1v-0.5c0.3,0.1,0.4,0.1,0.5,0l-0.6-0.3l0.4-0.8l-0.3-0.3c0-0.3,0.5-0.5,1.4-0.5C94.9,22.3,95.1,22.3,95.3,22.4z"/>
	<path d="M99,16.3l0.8,0.6c0-0.2,0.1-0.3,0.2-0.3h0.1l1.5,3.9v0.2h-0.1l-0.2-0.6h-0.1v0.2l0.8,1.8h0.1c0.3-1.9,0.7-3.8,1.2-5.8
		l0.3,0.2l0.3-0.1l0.6,0.3v0.1c-0.2,0-0.3,0.1-0.3,0.4h0.1l0.1,0.1h0.1l0.1-0.5h0.2v0.1l-0.1,0.1l0.1,0.1v0.1c-0.5,1.7-1,4-1.5,7.1
		h-0.2l0.2-1.7c-0.1,0-0.4,0.7-0.6,2c-0.3,0.2-0.5,0.3-0.8,0.3v0.2h-0.1c0-0.1-0.1-0.2-0.4-0.2v-0.8c0-0.3-0.7-2.1-2.2-5.4h-0.1
		c-0.3,1.3-0.5,3-0.8,5.2l-0.1-0.1c-0.4,0.1-0.6,0.3-0.6,0.5h-0.2c-0.1-0.3-0.2-0.7-0.2-1.4h-0.1v1h-0.2l-0.1-0.5
		c0-2,0.4-4.3,1.3-7.1L99,16.3z M97.5,19v0.1l0.1,0.1l-0.1,0.1v0.2h0.1l0.1-0.4L97.6,19H97.5z M101.6,20.7c0.2,0,0.3,0.3,0.4,0.9
		v0.1h-0.1L101.6,20.7z"/>
	<path d="M110.9,16.2l0.5,0.4c-0.2,0.6-0.4,0.9-0.8,0.9l-2.8,0.1l0,0.2l0.5,0l0.7-0.1L109,18l0.1,0l0.8-0.1l0.2,0l0,0.1l-2.5,0.3
		l-0.2,1.4l0.1,0l2.9-0.2l0.1,0.1l0,0.1l-0.2,0v0.1l0.7,0.2l0,0.1c-0.2,0.4-1.2,0.7-3.1,1l-1.1,0l0.1,0.1l-0.5,1.4h-0.1l0.1-1
		l-0.1,0l-0.2,1.5c2.2-0.3,3.7-0.4,4.6-0.3l0.5,0.1l0,0.2l-0.2,0l0.1,0.1l0,0.3c-0.2,0.3-0.6,0.4-1.3,0.3l0,0.1l0.9,0.1l0,0.2
		l-5,0.7l-0.1,0c-0.3-0.1-0.5-0.2-0.5-0.3v0l0-0.3l0.3-1.2l-0.1-0.1l0.2,0l0,0.5l0.1,0c0-0.4,0.1-0.5,0.3-0.5l-0.1-0.1l0.1-1.1
		l-0.2,0l-0.1,0.5l0.1-0.1l0.1,0l0,0.6l-0.1,0l0-0.3l-0.1,0l0,0.2l-0.1,0l0-0.2l0.3-1.8l-0.1,0l0.2-0.5l-0.1-0.1l0-0.1l0.2-1.8
		l0.1,0.1l0.1,0l0-0.2l-0.1-0.5l0.2-1l0-0.3l0.1,0l0.1,0.1l0.1-0.1l0.1,0l0.1,0.1l0.1-0.1l0.3,0L110.9,16.2z M105.5,21l-0.1,0.8
		l0.1,0l0.1-0.7L105.5,21z M109,21.1h0.1l0,0.1l-2,0.2l-0.1-0.1l0-0.1l1,0l0,0.1L109,21.1z"/>
	<path d="M118,16.1l0.3,0.1v0.2H118l0.2,0.3c-0.2,0.4-0.7,0.5-1.7,0.5l-0.8,0.1l-0.1,0.3h0.1c-0.2,0.5-0.6,2.8-1.3,6.9l0.3,1.4h-0.1
		c-0.2,0-0.3-0.4-0.4-1.1l0.1-1.1v-0.1h-0.1v0.2c-0.2,0-0.3,0.1-0.3,0.2v0.1l0.2,1.7v0.1h-0.2l-0.4-0.3l-0.1,0.1h-0.1
		c-0.3-0.6-0.4-1.2-0.4-1.6l0.1,0.1h0.1l-0.2-0.8l0.3-0.1v-0.5h-0.2v-0.1c0.2,0,0.3-0.1,0.3-0.2v-0.1h-0.2c0-0.6,0.1-0.9,0.3-0.9
		v-1.4c0.1-0.1,0.3-0.9,0.4-2.3l-0.8,0.1l-1.5-0.1v-0.1l0.5-0.1v0.1l0.1-0.1h1.6v-0.3l-1.7,0.2l-0.1-0.1h-0.1l-0.6,0.1l-0.3-0.2
		l0.1-0.5l-0.1-0.1c0-0.4,0.4-0.5,1.3-0.5L118,16.1z M113.4,22.4l-0.2,2.4h0.2l-0.1-0.5V24l0.2-0.3h-0.1l0.1-0.1v-0.1l-0.1-0.1v-0.1
		l0.2-0.4l-0.1-0.4H113.4z M117.4,16.4v0.1h0.4v-0.1H117.4z"/>
</g>
</svg>
