<?xml version="1.0" encoding="utf-8"?>
<!-- Generator: Adobe Illustrator 24.2.1, SVG Export Plug-In . SVG Version: 6.00 Build 0)  -->
<svg version="1.2" baseProfile="tiny" id="Ebene_1" xmlns="http://www.w3.org/2000/svg" xmlns:xlink="http://www.w3.org/1999/xlink"
	 x="0px" y="0px" viewBox="0 0 344.06 345.23" overflow="visible" xml:space="preserve">
<g>
	<g>
		<path fill="#F6FBF9" stroke="#4A2770" stroke-width="0.75" stroke-miterlimit="10" d="M338.2,246.76
			c-2.59,30.78-21.49,57.72-48.82,72.09c-39.64,20.83-85.75,20.83-85.75,20.83s-87.99,2.26-134.12-69.1
			c-12.43,7.49-28.39,4.62-36.44-6.93c-6.86-9.82-5.84-22.85,1.62-32.12c-0.65-0.86-1.74-2.32-3.56-4.74
			C-32.45,135.97,43.22,61.81,43.22,61.81C112.84-9.32,197.99,5.12,220.3,10.35c63.82,15,57.51,56,54.48,66.59
			c27.24,6.05,46.4,44.1,33.3,66.59c-4.24,7.28-5.57,12.86-5.65,16.92c-0.09,6.1,2.62,8.81,2.62,8.81l0.06,0.06
			c0.64,0.5,20.83,16.57,29.5,44.5C337.61,223.45,339.22,234.47,338.2,246.76z"/>
		<path stroke="#000000" stroke-width="0.25" stroke-miterlimit="10" d="M202.6,344.97c-5,0-25.28-0.51-50.27-8.03
			c-25.26-7.6-60.03-24.08-84.63-59.55c-14.02,5.83-30.39,1.6-38.99-10.73c-7.31-10.47-7.41-24.1-0.59-35.05
			c-0.11-0.15-0.23-0.31-0.35-0.47l-0.99-1.33c-34.15-48.78-28.86-92.94-18.42-121.4c11.1-30.23,29.81-49.06,31.11-50.34
			C110.1-14.05,196.66-0.64,221.51,5.2c26.18,6.15,44.16,17.29,53.43,33.09c7.93,13.52,7.39,27.18,6.08,34.97
			c13.27,4.8,25.12,16.44,31.7,31.48c6.57,15.01,6.54,30.13-0.07,41.46c-3.98,6.83-4.87,11.58-4.93,14.35
			c-0.04,2.94,0.8,4.5,1.12,4.98c3.29,2.72,22.31,19.31,30.82,46.72c3.52,11.31,4.8,23.07,3.81,34.95l0,0
			c-2.71,32.23-22.01,60.76-51.64,76.33c-39.95,20.99-85.41,21.43-88.15,21.43C203.52,344.97,203.15,344.97,202.6,344.97z
			 M71.16,263.38l2.79,4.31c22.96,35.51,56.96,51.75,81.44,59.12c26.64,8.02,47.89,7.58,48.1,7.57l0.14,0
			c0.45,0,45.33-0.27,83.29-20.22c26.4-13.87,43.6-39.24,46.01-67.84c0.88-10.51-0.25-20.91-3.37-30.91
			c-8.17-26.31-27.52-41.75-27.71-41.91l-0.25-0.2l-0.29-0.29c-0.71-0.71-4.28-4.69-4.16-12.63c0.11-5.88,2.25-12.44,6.36-19.51
			c4.81-8.26,4.63-20.18-0.49-31.89c-6.08-13.9-17.34-24.19-29.38-26.87l-5.49-1.22l1.55-5.41c1.14-3.98,4.22-18.04-3.88-31.84
			c-7.75-13.21-23.47-22.68-46.72-28.14C195.6,10,113.77-2.69,47.01,65.52l-0.08,0.08c-0.18,0.18-18.39,18.32-28.76,46.85
			c-13.74,37.8-7.94,75.22,17.24,111.23l0.84,1.12c1.29,1.72,2.12,2.83,2.66,3.54l2.49,3.3l-2.59,3.22
			c-6.21,7.71-6.77,18.06-1.4,25.76c6.37,9.13,19.27,11.52,29.37,5.43L71.16,263.38z"/>
	</g>
	<path fill="#E4F2F5" d="M308.8,114.98c-4.54-17.24-18.39-33.75-35.46-37.55c2.99-10.46,9.22-50.96-53.81-65.77
		C197.5,6.49,113.4-7.77,44.64,62.49c0,0-74.54,73.06-12.19,162.59l-1.03,2.12c1.63,2.17,2.63,3.51,3.24,4.32
		c-7.46,9.26-8.48,22.29-1.62,32.12c8.05,11.55,24.02,14.42,36.44,6.93c16.37,25.32,38.01,41.37,59.12,51.54
		c-18.44-26.74-17.7-51.92-17.7-51.92s24.25-66.37,7.07-97.56c-5.07-9.2-6.93-17.08-7.05-23.65c33.08-35.77,95.89-41.4,146.3-39.1
		c12.42,11.4,29.36,31.62,25.34,54.53c-4.01,22.82-8.15,25.19-8.15,25.19s8.61,1.57,29.32-58.53c2.21-6.42,2.64-11.89,1.79-16.56
		C306.65,114.66,307.74,114.82,308.8,114.98z"/>
	<g>
		<path fill="#4A2770" d="M247.82,200.39c-0.22,9.58-8.54,17.14-18.56,16.91c-3.13-0.07-6.06-0.89-8.6-2.29
			c0.1-0.07,0.21-0.14,0.31-0.21c1.54-1.1,3.47-1.46,5.38-1.18c2.15,0.32,4.46,0.15,6.75-0.61c4.66-1.57,8.09-5.58,8.82-10.24
			c1.25-7.95-5.08-14.87-13.21-15.06c-5.76-0.13-13.25,7.35-14.25,7.83c-0.74,0.35-2.44,0.87-2.42,0.21
			c1.99-7.7,9.36-13.29,18.02-13.1C240.07,182.88,248.04,190.82,247.82,200.39z"/>
		<path fill="#4A2770" d="M174.37,206.01c-1.61-0.06-3.37-0.18-5.31-0.41c-8.33-0.95-15.19,0.01-20.2,1.33
			c-4.71-4.64-9.14-11.1-12.45-18.72c-7.84-17.99-6.56-35.59,2.86-39.3c9.42-3.72,23.42,7.85,31.26,25.83
			c0.62,1.44,1.19,2.87,1.7,4.3c-1.2,2.94-3.88,7.98-8.44,9.33c-0.31,0.09-0.3,0.52,0.02,0.6c2.54,0.63,8.2,1.94,11.38,1.93
			C176,196.7,175.71,201.93,174.37,206.01z"/>
		<path fill="#4A2770" d="M277.61,171.55c-3.19,1.52-6.74,3.67-10.29,6.75c-2.43,2.1-4.55,3.62-6.43,4.74
			c-5.65-3.42-11.41-10.39-15.3-19.33c-6.4-14.68-5.35-29.04,2.34-32.07c7.09-2.8,17.33,5.01,23.91,17.75
			c-1.32,2.92-3.83,7.05-7.82,8.36c-0.38,0.12-0.34,0.64,0.04,0.73c2.93,0.72,9.24,2.14,12.03,1.81
			C277.18,164.3,277.68,168.13,277.61,171.55z"/>
	</g>
	<path fill="#4A2770" stroke="#4A2770" stroke-width="0.5" stroke-miterlimit="10" d="M74.53,227.66
		c-4.81-2.98-10.23-4.25-15.33-3.88c-2.55,0.17-5.01,0.83-7.26,1.77c-2.25,0.95-4.33,2.09-6.29,3.37c-1.97,1.27-3.8,2.73-5.39,4.4
		c-1.54,1.72-2.82,3.64-3.86,5.67c-1.05,2.04-1.65,4.25-2.04,6.47c-0.22,1.11-0.24,2.23-0.3,3.35l0.08,1.67
		c0.01,0.56,0.15,1.1,0.2,1.66c0.36,2.19,1,4.33,2.05,6.29c1.06,1.95,2.4,3.76,3.99,5.31c3.26,3.01,7.53,5.05,12.11,5.46
		c4.55,0.52,9.27-0.47,13.36-2.67c0.55-0.21,1.03-0.55,1.53-0.84l0.75-0.46l0.71-0.52c0.93-0.71,1.85-1.42,2.9-2.03
		c1.05-0.63,2.16-1.23,3.51-1.79c1.35-0.56,2.85-1.13,4.95-1.63c0.77,2.01,0.77,3.86,0.45,5.59c-0.34,1.72-1.07,3.28-2.02,4.67
		c-0.95,1.39-2.18,2.56-3.52,3.55c-0.33,0.25-0.67,0.49-1.02,0.73l-1.06,0.67c-0.71,0.43-1.38,0.94-2.11,1.36
		c-5.89,3.19-12.75,4.75-19.5,4.05c-6.75-0.58-13.35-3.46-18.5-8.07c-2.53-2.35-4.67-5.1-6.36-8.12c-1.67-3.04-2.74-6.39-3.32-9.78
		c-0.11-0.85-0.29-1.71-0.32-2.57l-0.1-2.58c0.07-1.71,0.15-3.43,0.46-5.12l0.21-1.27l0.31-1.24c0.23-0.82,0.4-1.66,0.72-2.45
		c0.29-0.8,0.57-1.6,0.89-2.39l1.09-2.3c1.57-3.01,3.59-5.76,5.95-8.18c1.24-1.14,2.44-2.32,3.82-3.28
		c1.32-1.04,2.75-1.91,4.22-2.69c2.96-1.56,6.27-2.43,9.55-2.72c3.29-0.28,6.55-0.02,9.66,0.62c6.21,1.29,11.82,4.57,15.48,9.18
		L74.53,227.66z"/>
	<g>
		<g>
			<path fill="#4A2770" stroke="#4A2770" stroke-width="7" stroke-miterlimit="10" d="M298.73,265.45
				c-13.97,16.89-39.34,34.15-73.05,38.21c-5.4,0.65-12.04,1.44-23.79-0.42c3.05-7.18,18.58-37.5,60.66-29.17
				c-2.99-3.1-5.17-5.06-5.17-5.06S276.04,255.91,298.73,265.45z"/>
			<path fill="#4A2770" stroke="#4A2770" stroke-width="7" stroke-miterlimit="10" d="M307.2,216.2c-4.24-3.49-8.51-4.38-9.43-4.54
				c-11.89-3.66-21.93,5-25.71,8.26c-0.26,0.22-0.48,0.41-0.67,0.57l-0.09,0.08c-29.56,28.21-67.91,36.59-78.96,38.48
				c-1.92,0.33-3.71,0.83-5.36,1.5c-1.65,0.67-3.16,1.51-4.53,2.51c-9.3,6.82-9.53,15.19-8.08,21.02
				c2.91,11.75,15.02,22.32,23.89,23.92c8.18,1.48,14.2,1.8,19.01,1.67c3.56-0.1,6.46-0.45,9.08-0.77
				c24.7-2.97,48.06-13.18,65.78-28.74c14.98-13.16,24.31-28.72,24.33-40.6C316.5,226.59,311.44,219.7,307.2,216.2z M225.68,303.66
				c-5.4,0.65-12.04,1.44-23.79-0.42c3.05-7.18,18.58-37.5,60.66-29.17c-2.99-3.1-5.17-5.06-5.17-5.06s18.67-13.11,41.36-3.57
				C284.76,282.34,259.39,299.6,225.68,303.66z"/>
		</g>
		<path fill="#FFFFFF" stroke="#FFFFFF" stroke-miterlimit="10" d="M298.73,265.45c-13.97,16.89-39.34,34.15-73.05,38.21
			c-5.4,0.65-12.04,1.44-23.79-0.42c3.05-7.18,18.58-37.5,60.66-29.17c-2.99-3.1-5.17-5.06-5.17-5.06S276.04,255.91,298.73,265.45z"
			/>
	</g>
	<path fill="#4A2770" d="M308.08,143.54c-3.69,6.34-5.18,11.4-5.55,15.29c-10.14,15.16-17.34,23.75-17.72,24.2
		c21.49-52.96-30.62-91.29-30.62-91.29S144.94,77.93,119,115.57c0.38-1.07,12.49-34.6,32.06-40.2
		c-13.5,3.47-89.32,26.85-44.07,107.67c0,0,0.89,60.71-11.21,61.89c0,0-22.61-44.39-62.49-15.26c-0.56-0.76-1.27-1.71-2.16-2.89
		C-32.45,135.97,43.22,61.81,43.22,61.81C112.84-9.32,197.99,5.12,220.3,10.35c63.82,15,57.51,56,54.48,66.59
		C302.02,83,321.18,121.05,308.08,143.54z"/>
	<g>
		<path fill="#4A2770" stroke="#4A2770" stroke-width="0.25" stroke-miterlimit="10" d="M202.6,344.97c-5,0-25.28-0.51-50.27-8.03
			c-25.26-7.6-60.03-24.08-84.63-59.55c-14.02,5.83-30.39,1.6-38.99-10.73c-7.31-10.47-7.41-24.1-0.59-35.05
			c-0.11-0.15-0.23-0.31-0.35-0.47l-0.99-1.33c-34.15-48.78-28.86-92.94-18.42-121.4c11.1-30.23,29.81-49.06,31.11-50.34
			C110.1-14.05,196.66-0.64,221.51,5.2c26.18,6.15,44.16,17.29,53.43,33.09c7.93,13.52,7.39,27.18,6.08,34.97
			c13.27,4.8,25.12,16.44,31.7,31.48c6.57,15.01,6.54,30.13-0.07,41.46c-3.98,6.83-4.87,11.58-4.93,14.35
			c-0.04,2.94,0.8,4.5,1.12,4.98c3.29,2.72,22.31,19.31,30.82,46.72c3.52,11.31,4.8,23.07,3.81,34.95l0,0
			c-2.71,32.23-22.01,60.76-51.64,76.33c-39.95,20.99-85.41,21.43-88.15,21.43C203.52,344.97,203.15,344.97,202.6,344.97z
			 M71.16,263.38l2.79,4.31c22.96,35.51,56.96,51.75,81.44,59.12c26.64,8.02,47.89,7.58,48.1,7.57l0.14,0
			c0.45,0,45.33-0.27,83.29-20.22c26.4-13.87,43.6-39.24,46.01-67.84c0.88-10.51-0.25-20.91-3.37-30.91
			c-8.17-26.31-27.52-41.75-27.71-41.91l-0.25-0.2l-0.29-0.29c-0.71-0.71-4.28-4.69-4.16-12.63c0.11-5.88,2.25-12.44,6.36-19.51
			c4.81-8.26,4.63-20.18-0.49-31.89c-6.08-13.9-17.34-24.19-29.38-26.87l-5.49-1.22l1.55-5.41c1.14-3.98,4.22-18.04-3.88-31.84
			c-7.75-13.21-23.47-22.68-46.72-28.14C195.6,10,113.77-2.69,47.01,65.52l-0.08,0.08c-0.18,0.18-18.39,18.32-28.76,46.85
			c-13.74,37.8-7.94,75.22,17.24,111.23l0.84,1.12c1.29,1.72,2.12,2.83,2.66,3.54l2.49,3.3l-2.59,3.22
			c-6.21,7.71-6.77,18.06-1.4,25.76c6.37,9.13,19.27,11.52,29.37,5.43L71.16,263.38z"/>
	</g>
</g>
</svg>
